# Blender v2.83.1 OBJ File: 'arrow.blend'
# www.blender.org
mtllib arrow.mtl
o Cube_Cube.001
v -3.981759 -0.173265 1.000000
v -3.981759 0.173265 1.000000
v -3.981759 -0.173265 -1.000000
v -3.981759 0.173265 -1.000000
v 1.000000 -0.173265 1.000000
v 1.000000 0.173265 1.000000
v 1.000000 -0.173265 -1.000000
v 1.000000 0.173265 -1.000000
v -2.376024 -0.173265 1.000000
v -2.376024 0.173265 1.000000
v -2.375963 -0.173265 -1.000000
v -2.375962 0.173265 -1.000000
v -1.776239 -0.173265 -2.480299
v -1.852750 -0.173265 -2.480299
v -1.776242 0.173265 2.480299
v -1.852750 0.173265 2.480299
v -1.852750 -0.173265 2.480299
v -1.776242 -0.173265 2.480299
v -1.852750 0.173265 -2.480299
v -1.776239 0.173265 -2.480299
v -5.332177 -0.173265 -0.054001
v -5.332177 -0.173265 0.054001
v -5.332177 0.173265 0.054001
v -5.332177 0.173265 -0.054001
vt 0.875000 0.500000
vt 0.750000 0.500000
vt 0.750000 0.500000
vt 0.875000 0.500000
vt 0.375000 0.750000
vt 0.375000 0.500000
vt 0.625000 0.500000
vt 0.625000 0.750000
vt 0.125000 0.500000
vt 0.250000 0.500000
vt 0.250000 0.750000
vt 0.125000 0.750000
vt 0.875000 0.750000
vt 0.750000 0.750000
vt 0.250000 0.500000
vt 0.125000 0.500000
vt 0.875000 0.500000
vt 0.750000 0.750000
vt 0.875000 0.750000
vt 0.125000 0.750000
vt 0.250000 0.750000
vt 0.125000 0.500000
vt 0.125000 0.750000
vt 0.875000 0.750000
vn 0.0000 1.0000 -0.0000
vn 1.0000 0.0000 0.0000
vn 0.0000 -1.0000 0.0000
vn 0.0000 0.0000 1.0000
vn 0.0000 0.0000 -1.0000
vn 0.9268 -0.0000 0.3755
vn -0.5737 0.0000 -0.8190
vn -0.5709 0.0000 -0.8210
vn 0.9268 0.0000 -0.3755
vn -0.5709 0.0000 0.8210
vn -1.0000 0.0000 0.0000
vn -0.5737 0.0000 0.8190
usemtl None
s off
f 4/1/1 12/2/1 20/3/1 19/4/1
f 5/5/2 7/6/2 8/7/2 6/8/2
f 3/9/3 11/10/3 7/6/3 5/5/3 9/11/3 1/12/3
f 8/7/1 12/2/1 4/1/1 2/13/1 10/14/1 6/8/1
f 9/11/4 5/5/4 6/8/4 10/14/4
f 12/2/5 8/7/5 7/6/5 11/10/5
f 12/2/6 11/10/6 13/15/6 20/3/6
f 4/1/7 3/9/7 21/16/7 24/17/7
f 15/18/4 16/19/4 17/20/4 18/21/4
f 13/15/5 14/22/5 19/4/5 20/3/5
f 3/9/8 4/1/8 19/4/8 14/22/8
f 11/10/3 3/9/3 14/22/3 13/15/3
f 10/14/1 2/13/1 16/19/1 15/18/1
f 9/11/9 10/14/9 15/18/9 18/21/9
f 1/12/3 9/11/3 18/21/3 17/20/3
f 2/13/10 1/12/10 17/20/10 16/19/10
f 21/16/11 22/23/11 23/24/11 24/17/11
f 3/9/3 1/12/3 22/23/3 21/16/3
f 2/13/1 4/1/1 24/17/1 23/24/1
f 1/12/12 2/13/12 23/24/12 22/23/12
