# This file uses meters as units for non-parametric coordinates.

mtllib Log.mtl
g default
v 139.043217 79.512762 -23.626912
v 139.043217 52.320747 -23.626921
v 139.043207 38.724741 -0.000001
v 139.043207 52.320739 23.626928
v 139.043207 79.512749 23.626928
v 139.043207 93.108766 0.000004
v -139.043207 79.512762 -23.626919
v -139.043207 52.320747 -23.626924
v -139.043207 38.724736 -0.000004
v -139.043207 52.320737 23.626924
v -139.043207 79.512748 23.626924
v -139.043207 93.108766 0.000000
v -139.043226 65.916745 0.000002
v 48.991560 76.282608 -20.934640
v 48.991560 86.648446 0.000000
v 48.991560 76.282608 20.934645
v 48.991560 55.550892 20.934645
v 48.991560 45.185044 -0.000003
v 48.991560 55.550892 -20.934645
v -45.953192 76.282608 -20.934640
v -45.953192 86.648446 0.000000
v -45.953192 76.282608 20.934645
v -45.953192 55.550892 20.934645
v -45.953192 45.185044 -0.000003
v -45.953192 55.550892 -20.934645
v 139.043226 65.916745 0.000003
v -58.871401 76.675190 -21.399024
v -58.871401 87.433640 0.000000
v -58.871401 76.675190 21.399024
v -58.871401 55.158310 21.399024
v -58.871401 44.399869 -0.000003
v -58.871401 55.158310 -21.399024
v -139.043207 70.277792 -23.626921
v -58.871401 69.367618 -21.399024
v -45.953192 69.241696 -20.934640
v 48.991560 69.241696 -20.934642
v 139.043217 70.277792 -23.626914
v -139.043226 74.422401 -14.780974
v -139.043207 63.554656 -23.626924
v -58.871401 64.047634 -21.399024
v -45.953192 64.115840 -20.934642
v 48.991560 64.115840 -20.934645
v 139.043217 63.554656 -23.626917
v 139.043226 74.422401 -14.780969
v -68.787741 64.719289 -41.270492
v -68.787741 68.837414 -41.270492
v -72.822593 64.700909 -41.270488
v -72.822593 68.871345 -41.270488
v 56.076936 76.536758 21.146478
v 56.076936 55.296741 21.146478
v 56.076936 44.676733 -0.000003
v 56.076936 55.296741 -21.146476
v 56.076936 64.071685 -21.146476
v 56.076936 69.323216 -21.146476
v 56.076936 76.536758 -21.146471
v 56.076936 87.156757 0.000001
v -139.043207 69.864372 23.626924
v -58.871401 69.040486 21.399024
v -45.953192 68.926495 20.934645
v 48.991560 68.926495 20.934645
v 56.076936 69.000287 21.146478
v 139.043207 69.864372 23.626928
v -139.043226 73.669568 13.472731
v -139.043207 62.324606 23.626924
v -58.871401 63.074311 21.399024
v -45.953192 63.178035 20.934645
v 48.991560 63.178035 20.934645
v 56.076936 63.110885 21.146478
v 139.043207 62.324608 23.626928
v 139.043226 73.669568 13.472731
v 38.393246 68.665069 37.898492
v 38.393246 63.445732 37.898492
v 33.366436 68.599667 37.748203
v 33.366436 63.505244 37.748203
vt 0.172579 0.000000
vt 0.257542 0.000000
vt 0.257542 0.298347
vt 0.181499 0.298347
vt 0.342504 0.000000
vt 0.333585 0.298347
vt 0.257542 0.323826
vt 0.182261 0.323826
vt 0.332823 0.323826
vt 0.257542 0.665248
vt 0.182261 0.665248
vt 0.332823 0.665248
vt 0.257542 0.711702
vt 0.180591 0.711702
vt 0.334493 0.711702
vt 0.257542 1.000000
vt 0.172579 1.000000
vt 0.342504 1.000000
vt 0.000000 0.000000
vt 0.084963 0.000000
vt 0.084963 0.298347
vt 0.008920 0.298347
vt 0.169925 0.000000
vt 0.161005 0.298347
vt 0.084963 0.323826
vt 0.009681 0.323826
vt 0.160244 0.323826
vt 0.084963 0.665248
vt 0.009681 0.665248
vt 0.160244 0.665248
vt 0.084963 0.711702
vt 0.008012 0.711702
vt 0.161914 0.711702
vt 0.084963 1.000000
vt 0.000000 1.000000
vt 0.169925 1.000000
vt 0.874809 0.113746
vt 0.850346 0.080952
vt 0.871718 0.007136
vt 0.879717 0.017092
vt 0.922818 0.082942
vt 0.896520 0.114275
vt 0.897160 0.017516
vt 0.905715 0.008037
vt 0.973031 0.185044
vt 0.956553 0.171180
vt 0.955198 0.101462
vt 0.966889 0.111298
vt 0.932717 0.171180
vt 0.916240 0.185044
vt 0.922382 0.111298
vt 0.934073 0.101462
vt 0.690318 0.137975
vt 0.690318 0.099974
vt 0.720241 0.063211
vt 0.770241 0.091983
vt 0.690318 0.077231
vt 0.690318 0.045992
vt 0.770241 0.000000
vt 0.770241 0.183967
vt 0.850165 0.045992
vt 0.815816 0.065758
vt 0.850165 0.137975
vt 0.850165 0.078630
vt 0.850165 0.104135
vt 0.660213 0.063211
vt 0.690137 0.099974
vt 0.690137 0.137975
vt 0.610213 0.091983
vt 0.690137 0.045992
vt 0.690137 0.077231
vt 0.610213 0.183967
vt 0.610213 0.000000
vt 0.530289 0.137975
vt 0.530289 0.045992
vt 0.564638 0.065758
vt 0.530289 0.104135
vt 0.530289 0.078630
vt 0.383166 0.940833
vt 0.345159 0.940833
vt 0.355227 0.660138
vt 0.384915 0.660138
vt 0.356087 0.636167
vt 0.385064 0.636167
vt 0.405912 0.940833
vt 0.402682 0.660138
vt 0.356087 0.314946
vt 0.385064 0.314946
vt 0.402406 0.636167
vt 0.437156 0.940833
vt 0.427087 0.660138
vt 0.354759 0.271240
vt 0.384834 0.271240
vt 0.402406 0.314946
vt 0.426227 0.636167
vt 0.345159 0.000000
vt 0.383166 0.000000
vt 0.426227 0.314946
vt 0.402832 0.271240
vt 0.405912 0.000000
vt 0.427556 0.271240
vt 0.437156 0.000000
vt 0.498647 0.000000
vt 0.531290 0.000000
vt 0.521222 0.280695
vt 0.495724 0.280695
vt 0.520362 0.304666
vt 0.495474 0.304666
vt 0.473138 0.000000
vt 0.997544 0.182534
vt 0.520362 0.625887
vt 0.495474 0.625887
vt 0.933827 0.080618
vt 0.439293 0.000000
vt 0.449362 0.280695
vt 0.521690 0.669592
vt 0.495860 0.669592
vt 0.476026 0.304666
vt 0.450221 0.304666
vt 0.531290 0.940833
vt 0.498647 0.940833
vt 0.476026 0.625887
vt 0.475675 0.669592
vt 0.450221 0.625887
vt 0.473138 0.940833
vt 0.448893 0.669592
vt 0.439293 0.940833
vt 0.880055 0.000000
vt 0.897719 0.000430
vt 0.942744 0.077866
vt 0.921336 0.004058
vt 0.475799 0.280695
vt 0.988613 0.109074
vt 0.955469 0.080618
vn -0.029884 0.000000 -0.999553
vn -0.029884 0.000000 -0.999553
vn -0.029884 0.000000 -0.999553
vn -0.029884 0.000000 -0.999553
vn -0.054357 -0.878290 -0.475029
vn -0.054357 -0.878290 -0.475029
vn -0.054386 -0.879396 -0.472975
vn -0.054387 -0.879424 -0.472922
vn -0.054357 -0.878290 0.475029
vn -0.054357 -0.878290 0.475029
vn -0.054387 -0.879424 0.472922
vn -0.054386 -0.879396 0.472975
vn -0.029884 0.000000 0.999553
vn -0.029884 0.000000 0.999553
vn -0.029884 0.000000 0.999553
vn -0.029884 0.000000 0.999553
vn -0.054357 0.878290 0.475029
vn -0.054357 0.878290 0.475029
vn -0.054386 0.879396 0.472975
vn -0.054387 0.879424 0.472922
vn -0.054357 0.878290 -0.475029
vn -0.054357 0.878290 -0.475029
vn -0.054387 0.879424 -0.472922
vn -0.054386 0.879396 -0.472975
vn 1.000000 -0.000001 -0.000001
vn 1.000000 -0.000000 0.000000
vn 1.000000 0.000001 0.000000
vn 1.000000 0.000000 -0.000000
vn 1.000000 -0.000001 -0.000000
vn 1.000000 -0.000001 0.000000
vn 1.000000 0.000001 0.000000
vn 1.000000 0.000000 0.000002
vn 1.000000 -0.000000 0.000000
vn 1.000000 0.000001 0.000000
vn 1.000000 0.000001 0.000000
vn 1.000000 0.000001 0.000000
vn -1.000000 0.000001 -0.000000
vn -1.000000 -0.000001 -0.000001
vn -1.000000 -0.000001 -0.000001
vn -1.000000 0.000000 0.000000
vn -1.000000 -0.000001 0.000000
vn -1.000000 -0.000001 0.000001
vn -1.000000 -0.000000 0.000000
vn -1.000000 0.000000 0.000002
vn -1.000000 0.000001 0.000001
vn -1.000000 0.000001 0.000001
vn -1.000000 0.000001 0.000000
vn -1.000000 0.000001 -0.000001
vn -0.003902 0.896061 -0.443913
vn -0.003855 0.896063 -0.443911
vn 0.005973 0.895975 -0.444065
vn 0.006000 0.895974 -0.444066
vn -0.003855 0.896063 0.443911
vn -0.003902 0.896061 0.443913
vn 0.006000 0.895974 0.444066
vn 0.005973 0.895975 0.444065
vn -0.001208 0.000000 0.999999
vn -0.002144 0.000000 0.999998
vn 0.004451 0.000000 0.999990
vn 0.004374 0.000000 0.999990
vn -0.003902 -0.896061 0.443913
vn -0.003855 -0.896063 0.443911
vn 0.005973 -0.895975 0.444065
vn 0.006000 -0.895974 0.444066
vn -0.003855 -0.896062 -0.443911
vn -0.003902 -0.896061 -0.443913
vn 0.006000 -0.895974 -0.444067
vn 0.005973 -0.895975 -0.444065
vn -0.002098 0.000000 -0.999998
vn -0.002144 0.000000 -0.999998
vn 0.004451 0.000000 -0.999990
vn 0.002860 0.000000 -0.999996
vn 0.052664 0.880347 -0.471398
vn 0.052674 0.880312 -0.471462
vn 0.052674 0.880312 0.471462
vn 0.052664 0.880347 0.471398
vn 0.028742 0.000000 0.999587
vn 0.028779 0.000000 0.999586
vn 0.052664 -0.880347 0.471398
vn 0.052674 -0.880312 0.471462
vn 0.052674 -0.880312 -0.471462
vn 0.052664 -0.880347 -0.471398
vn 0.028742 0.000000 -0.999587
vn 0.028436 0.000000 -0.999596
vn 0.053232 0.878328 -0.475086
vn 0.053232 0.878328 -0.475086
vn 0.053232 0.878328 0.475086
vn 0.053232 0.878328 0.475086
vn 0.027778 0.000000 0.999614
vn 0.027778 0.000000 0.999614
vn 0.053232 -0.878328 0.475086
vn 0.053232 -0.878328 0.475086
vn 0.053232 -0.878328 -0.475086
vn 0.053232 -0.878328 -0.475086
vn 0.027778 0.000000 -0.999614
vn 0.027778 0.000000 -0.999614
vn 0.028742 0.000000 -0.999587
vn 0.028392 0.000000 -0.999597
vn 0.027778 0.000000 -0.999614
vn 0.027778 0.000000 -0.999614
vn 0.004451 0.000000 -0.999990
vn 0.002655 0.000000 -0.999997
vn -0.002144 0.000000 -0.999998
vn -0.002098 0.000000 -0.999998
vn -0.029884 0.000000 -0.999553
vn -0.029884 0.000000 -0.999553
vn -0.029884 0.000000 -0.999553
vn -0.029884 0.000000 -0.999553
vn -1.000000 0.000000 -0.000004
vn -0.000001 0.000000 -1.000000
vn -0.000001 0.000000 -1.000000
vn -0.000001 0.000000 -1.000000
vn -0.000001 0.000000 -1.000000
vn 1.000000 0.000000 0.000000
vn 0.665066 0.000000 -0.746784
vn 0.665066 0.000000 -0.746784
vn 0.665066 0.000000 -0.746784
vn 0.665066 0.000000 -0.746784
vn 0.006113 -0.999303 -0.036827
vn 0.006113 -0.999303 -0.036827
vn 0.006113 -0.999303 -0.036827
vn 0.006113 -0.999303 -0.036827
vn -0.818435 0.000000 0.574600
vn -0.818435 0.000000 0.574600
vn -0.818435 0.000000 0.574600
vn -0.818435 0.000000 0.574600
vn 0.010295 0.999441 -0.031804
vn 0.010295 0.999441 -0.031804
vn 0.010295 0.999441 -0.031804
vn 0.010295 0.999441 -0.031804
vn 0.028779 0.000000 0.999586
vn 0.027778 0.000000 0.999614
vn 0.004374 0.000000 0.999991
vn -0.001228 0.000000 0.999999
vn -0.029884 0.000000 0.999553
vn -0.029884 0.000000 0.999553
vn -0.029884 0.000000 0.999553
vn -0.029884 0.000000 0.999553
vn -0.029884 0.000000 0.999553
vn -0.029884 0.000000 0.999553
vn 0.028742 0.000000 0.999587
vn 0.027778 0.000000 0.999614
vn 0.004451 0.000000 0.999990
vn -0.002144 0.000000 0.999998
vn -0.029884 0.000000 0.999553
vn -0.029884 0.000000 0.999553
vn 0.687724 0.000000 0.725972
vn 0.687724 0.000000 0.725972
vn 0.687724 0.000000 0.725972
vn 0.687724 0.000000 0.725972
vn -0.011732 0.999899 0.008079
vn -0.011732 0.999899 0.008079
vn -0.011732 0.999899 0.008079
vn -0.011732 0.999899 0.008079
vn -0.732521 0.000000 -0.680744
vn -0.732521 0.000000 -0.680744
vn -0.732521 0.000000 -0.680744
vn -0.732521 0.000000 -0.680744
vn -0.010728 -0.999901 0.009077
vn -0.010728 -0.999901 0.009077
vn -0.010728 -0.999901 0.009077
vn -0.010728 -0.999901 0.009077
s 1
g pCylinder1
usemtl initialShadingGroup
f 43/79/1 2/80/2 52/81/3 53/82/4
s 2
f 2/1/5 3/2/6 51/3/7 52/4/8
s 3
f 3/2/9 4/5/10 50/6/11 51/3/12
s 4
f 62/103/13 5/104/14 49/105/15 61/106/16
s 5
f 5/19/17 6/20/18 56/21/19 49/22/20
s 6
f 6/20/21 1/23/22 55/24/23 56/21/24
s 7
f 2/53/25 43/54/26 44/55/27 26/56/28
f 3/60/29 2/53/25 26/56/28
f 4/63/30 3/60/29 26/56/28
f 5/61/31 62/64/32 69/65/33 70/62/34
f 6/59/35 5/61/31 70/62/34 26/56/28
f 1/58/36 6/59/35 26/56/28 44/55/27
s 8
f 38/66/37 39/67/38 8/68/39 13/69/40
f 8/68/39 9/72/41 13/69/40
f 9/72/41 10/74/42 13/69/40
f 64/77/43 57/78/44 11/75/45 63/76/46
f 11/75/45 12/73/47 13/69/40 63/76/46
f 12/73/47 7/70/48 38/66/37 13/69/40
s 6
f 15/25/49 14/27/50 20/30/51 21/28/52
s 5
f 16/26/53 15/25/54 21/28/55 22/29/56
s 4
f 60/108/57 16/107/58 22/111/59 59/112/60
s 3
f 18/7/61 17/9/62 23/12/63 24/10/64
s 2
f 19/8/65 18/7/66 24/10/67 25/11/68
s 1
f 42/84/69 19/83/70 25/87/71 41/88/72
s 6
f 21/28/52 20/30/51 27/33/73 28/31/74
s 5
f 22/29/56 21/28/55 28/31/75 29/32/76
s 4
f 59/112/60 22/111/59 29/116/77 58/117/78
s 3
f 24/10/64 23/12/63 30/15/79 31/13/80
s 2
f 25/11/68 24/10/67 31/13/81 32/14/82
s 1
f 41/88/72 25/87/71 32/92/83 40/93/84
s 6
f 28/31/74 27/33/73 7/36/85 12/34/86
s 5
f 29/32/76 28/31/75 12/34/87 11/35/88
s 4
f 58/117/78 29/116/77 11/120/89 57/121/90
s 3
f 31/13/80 30/15/79 10/18/91 9/16/92
s 2
f 32/14/82 31/13/81 9/16/93 8/17/94
s 1
f 40/93/84 32/92/83 8/96/95 39/97/96
f 27/101/97 34/99/98 33/100/99 7/102/100
f 20/98/101 35/94/102 34/99/98 27/101/97
f 14/95/103 36/89/104 35/94/102 20/98/101
f 1/90/105 37/85/106 54/86/107 55/91/108
s 8
f 7/70/48 33/71/109 39/67/38 38/66/37
s 1
f 34/99/98 40/93/84 39/97/96 33/100/99
s off
f 46/43/110 45/40/111 47/128/112 48/129/113
s 1
f 36/89/104 42/84/69 41/88/72 35/94/102
f 37/85/106 43/79/1 53/82/4 54/86/107
s 7
f 44/55/27 43/54/26 37/57/114 1/58/36
s off
f 35/42/115 41/37/116 45/40/117 46/43/118
f 41/37/119 40/38/120 47/39/121 45/40/122
f 40/130/123 34/41/124 48/44/125 47/131/126
f 34/41/127 35/42/128 46/43/129 48/44/130
s 4
f 61/106/16 49/105/15 16/107/58 60/108/57
s 3
f 51/3/12 50/6/11 17/9/62 18/7/61
s 2
f 52/4/8 51/3/7 18/7/66 19/8/65
s 1
f 53/82/4 52/81/3 19/83/70 42/84/69
f 54/86/107 53/82/4 42/84/69 36/89/104
f 55/91/108 54/86/107 36/89/104 14/95/103
s 6
f 56/21/24 55/24/23 14/27/50 15/25/49
s 5
f 49/22/20 56/21/19 15/25/54 16/26/53
s 4
f 65/123/131 58/117/78 57/121/90 64/125/132
f 66/122/133 59/112/60 58/117/78 65/123/131
f 67/118/134 60/108/57 59/112/60 66/122/133
s off
f 72/113/135 71/134/136 73/47/137 74/52/138
s 4
f 69/109/139 62/103/13 61/106/16 68/132/140
s 8
f 10/74/42 64/77/43 63/76/46 13/69/40
s 4
f 30/126/141 65/123/131 64/125/132 10/127/142
f 23/124/143 66/122/133 65/123/131 30/126/141
f 17/119/144 67/118/134 66/122/133 23/124/143
f 50/115/145 68/132/140 67/118/134 17/119/144
f 4/114/146 69/109/139 68/132/140 50/115/145
s 7
f 70/62/34 69/65/33 4/63/30 26/56/28
s off
f 68/110/147 61/45/148 71/48/149 72/133/150
f 61/45/151 60/46/152 73/47/153 71/48/154
f 60/46/155 67/49/156 74/52/157 73/47/158
f 67/49/159 68/50/160 72/51/161 74/52/162
