# This file uses meters as units for non-parametric coordinates.

mtllib Plant1.mtl
g default
v 2.981405 -2.536736 1.695098
v 2.139709 -2.536736 1.215684
v 43.695641 32.659760 26.109150
v 42.853977 34.528069 25.978363
v 40.669083 32.659760 27.024786
v 39.827377 34.528069 26.894003
v -0.045177 -2.536736 5.407294
v -0.886875 -2.536736 4.927874
v 22.172327 40.207367 12.625882
v 23.014008 39.933323 13.105287
v 19.987438 39.933323 16.817482
v 19.145739 40.207367 16.338074
v 39.032200 40.209789 22.228951
v 38.829796 39.623447 22.113670
v 35.803242 39.623447 25.825878
v 36.005623 40.209789 25.941099
v 9.551977 27.845423 5.437567
v 10.393671 27.845423 5.916984
v 7.367096 27.845423 9.629184
v 6.525404 27.845423 9.149774
v -3.013090 -2.564651 -0.664141
v 3.013090 -2.564651 -0.664141
v -2.788960 102.844925 -42.698112
v -0.498742 102.844925 -43.500561
v -2.397230 102.844925 -41.436695
v -0.106996 102.844940 -42.239147
v -3.013090 -2.564651 0.664141
v 3.013090 -2.564651 0.664141
v 3.013094 76.121300 -16.652378
v -3.013090 76.121300 -16.652380
v -3.013090 76.121300 -17.980656
v 3.013089 76.121300 -17.980646
v 4.505289 97.718010 -33.515312
v -1.217579 97.718010 -31.510164
v -1.609319 97.718010 -32.771587
v 4.113543 97.718010 -34.776749
v -2.973851 -1.569847 0.492871
v 2.973851 -1.569847 0.492871
v 2.092165 91.855850 31.079124
v 3.522129 91.855850 30.426195
v 1.968173 92.545883 30.772757
v 3.398137 92.545883 30.119823
v -2.973851 -1.569847 -0.492871
v 2.973851 -1.569847 -0.492871
v -3.817316 86.299408 18.414543
v -4.183828 86.299408 17.508930
v -1.430469 86.299408 16.251726
v -1.063956 86.299408 17.157341
v -0.322007 93.951126 26.015934
v -0.312288 94.753204 26.039946
v 1.733882 94.753204 25.105648
v 1.724165 93.951126 25.081644
v -1.020233 -1.294346 1.375388
v -2.791428 -1.294346 -0.581276
v -32.031052 72.001022 30.767982
v -33.408665 73.484009 29.246117
v -31.046305 72.001022 29.876577
v -32.423916 73.484009 28.354712
v -0.035484 -1.294346 0.483981
v -1.806679 -1.294346 -1.472682
v -14.644619 54.272842 10.148377
v -12.873425 54.272842 12.105041
v -13.858173 54.272842 12.996447
v -15.629368 54.272842 11.039783
v -26.852375 70.667976 19.877764
v -25.474766 69.184998 21.399628
v -26.459515 69.184998 22.291035
v -27.837124 70.667976 20.769171
v -0.482987 -3.540131 4.323853
v 0.482987 -3.540131 4.323853
v -47.209148 52.150902 0.414545
v -46.243176 55.107140 1.018938
v -47.209148 52.150902 -0.414545
v -46.243176 55.107140 -1.018938
v -0.482987 -3.540131 -4.323853
v 0.482987 -3.540131 -4.323853
v -22.507658 64.093361 2.996750
v -23.473633 63.659752 2.996750
v -23.473633 63.659752 -2.996750
v -22.507658 64.093361 -2.996750
v -41.857101 64.097229 1.686518
v -41.624825 63.169449 1.686518
v -41.624825 63.169449 -1.686518
v -41.857101 64.097229 -1.686518
v -8.023789 44.533207 4.323853
v -8.989763 44.533207 4.323853
v -8.989763 44.533207 -4.323853
v -8.023789 44.533207 -4.323853
vt 0.092721 0.240565
vt 0.047914 0.325306
vt 0.047377 0.313368
vt 0.276735 0.359984
vt 0.268928 0.200511
vt 0.262238 0.196178
vt 0.786678 0.098743
vt 0.788801 0.086321
vt 0.036589 0.209148
vt 0.025135 0.305574
vt 0.018992 0.314654
vt 0.030443 0.218227
vt 0.022533 0.064026
vt 0.198174 0.201051
vt 0.786030 0.027849
vt 0.782743 0.015684
vt 0.838304 0.034832
vt 0.848353 0.032450
vt 0.890006 0.968654
vt 0.826702 0.817427
vt 0.836485 0.988051
vt 0.836788 0.979658
vt 0.784163 0.964639
vt 0.780994 0.957400
vt 0.911705 0.032806
vt 0.921799 0.034788
vt 0.928607 0.970640
vt 0.852879 0.844047
vt 0.778496 0.903250
vt 0.848405 0.949493
vt 0.785564 0.941293
vt 0.792777 0.937330
vt 0.221130 0.881683
vt 0.226469 0.907979
vt 0.208343 0.907967
vt 0.213755 0.881673
vt 0.232401 0.987927
vt 0.202406 0.987926
vt 0.172942 0.990509
vt 0.096158 0.986128
vt 0.120513 0.559282
vt 0.197296 0.563663
vt 0.142205 0.386279
vt 0.195422 0.389315
vt 0.087926 0.984182
vt 0.011142 0.979801
vt 0.039284 0.540378
vt 0.115507 0.554504
vt 0.082225 0.373957
vt 0.135055 0.383748
vt 0.266368 0.975609
vt 0.236884 0.981711
vt 0.228069 0.883097
vt 0.235316 0.881597
vt 0.521500 0.751767
vt 0.394225 0.378134
vt 0.314282 0.494356
vt 0.351667 0.457214
vt 0.522743 0.496116
vt 0.474002 0.514615
vt 0.265624 0.445043
vt 0.299798 0.438500
vt 0.473921 0.779916
vt 0.450968 0.359341
vt 0.274280 0.530335
vt 0.368255 0.594402
vt 0.570910 0.464904
vt 0.530064 0.498206
vt 0.264933 0.490333
vt 0.274950 0.458911
vt 0.140118 0.275534
vt 0.066887 0.339303
vt 0.140675 0.213729
vt 0.021327 0.317827
vt 0.043574 0.325622
vt 0.203699 0.196178
vt 0.796075 0.920609
vt 0.853122 0.925577
vt 0.834099 0.817837
vt 0.741148 0.859562
vt 0.803355 0.794860
vt 0.662729 0.863043
vt 0.674317 0.873530
vt 0.658107 0.891436
vt 0.646522 0.880949
vt 0.739864 0.973265
vt 0.600461 0.928429
vt 0.712072 0.980682
vt 0.606879 0.717353
vt 0.640567 0.726265
vt 0.328086 0.817981
vt 0.381055 0.823966
vt 0.351353 0.983073
vt 0.321542 0.979705
vt 0.271504 0.809130
vt 0.324809 0.809130
vt 0.313153 0.981214
vt 0.283157 0.981214
vt 0.311571 0.297922
vt 0.309565 0.288810
vt 0.656121 0.296613
vt 0.302349 0.256048
vt 0.390043 0.384962
vt 0.471664 0.768936
vt 0.294680 0.419533
vt 0.307811 0.421648
vt 0.312930 0.440615
vt 0.354999 0.454955
vt 0.529486 0.759631
vt 0.442964 0.359636
vt 0.304763 0.247037
vt 0.313446 0.214632
vt 0.660003 0.222433
vt 0.789449 0.157215
vt 0.025951 0.193392
vt 0.985135 0.033720
vt 0.957927 0.970145
vt 0.773614 0.953790
vt 0.778196 0.937687
vt 0.181342 0.989512
vt 0.202812 0.559485
vt 0.359197 0.986415
vt 0.272952 0.979533
vt 0.246656 0.903795
vt 0.683834 0.983625
vt 0.618284 0.883892
vt 0.597213 0.721427
vt 0.579843 0.706320
vt 0.531726 0.920105
vt 0.571929 0.699438
vt 0.754385 0.186588
vt 0.732148 0.180630
vt 0.722019 0.177916
vt 0.662118 0.848238
vt 0.699259 0.181368
vt 0.688889 0.182941
vt 0.574261 0.921497
vt 0.564599 0.925572
vt 0.669289 0.858733
vt 0.734831 0.958471
vt 0.035497 0.552955
vt 0.386222 0.816068
vt 0.202815 0.387614
vt 0.112280 0.557336
vt 0.205697 0.562666
vt 0.651320 0.254837
vt 0.648905 0.263850
vt 0.472229 0.522021
vt 0.658128 0.305724
vt 0.684878 0.844785
vt 0.651749 0.849810
vt 0.717245 0.853458
vt 0.695009 0.847500
vt 0.023181 0.134919
vt 0.025304 0.122498
vt 0.019245 0.051861
vt 0.880774 0.970842
vt 0.851638 0.851471
vt 0.919333 0.968819
vt 0.215898 0.345134
vt 0.283090 0.364099
vt 0.092186 0.228627
vt 0.221143 0.340506
vt 0.165511 0.376306
vt 0.433075 0.813219
vt 0.491815 0.326038
vt 0.327410 0.627704
vt 0.313460 0.499345
vt 0.375975 0.592955
vt 0.425813 0.575785
vt 0.723658 0.991169
vt 0.771893 0.902349
vt 0.757939 0.882875
vt 0.758499 0.876333
vt 0.843311 0.956602
vt 0.431225 0.570092
vt 0.539639 0.926988
vn 0.494930 -0.000001 -0.868933
vn 0.494930 -0.000001 -0.868933
vn 0.494930 -0.000001 -0.868933
vn 0.494930 -0.000001 -0.868933
vn 0.284086 0.193716 0.939026
vn 0.284086 0.193716 0.939026
vn 0.284086 0.193716 0.939026
vn 0.284086 0.193716 0.939026
vn -0.494928 -0.000002 0.868934
vn -0.494929 -0.000000 0.868933
vn -0.494930 0.000000 0.868933
vn -0.494930 0.000000 0.868933
vn -0.746943 0.266855 -0.608987
vn -0.746943 0.266855 -0.608987
vn -0.689849 0.455818 -0.562439
vn -0.678649 0.482997 -0.553307
vn 0.746943 -0.266854 0.608987
vn 0.746943 -0.266854 0.608987
vn 0.677509 -0.485656 0.552377
vn 0.689037 -0.457861 0.561776
vn 0.494928 -0.000003 -0.868934
vn 0.494929 -0.000002 -0.868933
vn 0.637516 0.086060 -0.765616
vn 0.646222 0.091726 -0.757617
vn 0.291323 -0.926670 0.237517
vn 0.240269 -0.950735 0.195893
vn -0.171335 -0.960557 -0.219029
vn -0.130160 -0.977713 -0.164732
vn -0.450947 -0.028838 0.892085
vn -0.459656 -0.023202 0.887794
vn -0.494927 -0.000000 0.868935
vn -0.494926 0.000029 0.868935
vn -0.243668 0.949294 -0.198663
vn -0.293985 0.925269 -0.239688
vn 0.095359 0.987592 0.124773
vn 0.126803 0.977956 0.165899
vn 0.800431 0.204896 -0.563319
vn 0.800431 0.204896 -0.563319
vn -0.492739 -0.584670 -0.644491
vn -0.492739 -0.584670 -0.644491
vn -0.357168 -0.087128 0.929968
vn -0.357168 -0.087128 0.929968
vn 0.488856 0.593426 0.639426
vn 0.488856 0.593426 0.639426
vn -0.142617 -0.646837 -0.749175
vn -0.153797 -0.885253 -0.438946
vn -0.153797 -0.885253 -0.438946
vn -0.144195 -0.667888 -0.730160
vn -0.000005 1.000000 -0.000005
vn -0.000005 1.000000 -0.000005
vn -0.000005 1.000000 -0.000005
vn -0.000005 1.000000 -0.000005
vn 0.153794 0.885254 0.438946
vn 0.142583 0.646399 0.749559
vn 0.144246 0.668587 0.729510
vn 0.153794 0.885254 0.438946
vn 0.977467 0.034350 -0.208275
vn 0.900126 0.334108 -0.279544
vn 0.900126 0.334108 -0.279544
vn 0.976913 -0.146187 -0.155789
vn -0.970910 0.182544 0.154959
vn -0.900126 0.334116 0.279535
vn -0.900126 0.334116 0.279535
vn -0.950423 0.237786 0.200386
vn 0.033081 0.306528 0.951287
vn -0.000000 0.214928 0.976630
vn -0.000000 0.214928 0.976630
vn 0.035129 0.312125 0.949391
vn -1.000000 0.000000 -0.000000
vn -0.999562 0.022542 0.019167
vn -0.997553 0.053261 0.045287
vn -1.000000 0.000000 -0.000000
vn 0.000001 -0.214928 -0.976630
vn -0.033332 -0.307215 -0.951056
vn -0.034895 -0.311488 -0.949609
vn 0.000001 -0.214928 -0.976630
vn 1.000000 -0.000000 -0.000002
vn 0.997457 -0.054294 -0.046167
vn 0.999609 -0.021301 -0.018113
vn 1.000000 -0.000000 -0.000002
vn 0.140469 -0.187428 0.972183
vn 0.140469 -0.187428 0.972183
vn 0.151382 -0.225388 0.962436
vn 0.153317 -0.232172 0.960516
vn 0.374669 0.431645 0.820552
vn 0.374669 0.431645 0.820552
vn 0.374669 0.431645 0.820552
vn 0.374669 0.431645 0.820552
vn -0.154582 0.237809 -0.958932
vn -0.152411 0.230052 -0.961170
vn -0.140461 0.187718 -0.972128
vn -0.140461 0.187718 -0.972128
vn 0.978346 0.083040 -0.189587
vn 0.978346 0.083040 -0.189587
vn 0.977329 0.081013 -0.195616
vn 0.974476 0.075694 -0.211348
vn -0.980494 -0.050296 0.190003
vn -0.980494 -0.050296 0.190003
vn -0.975237 -0.040555 0.217414
vn -0.979166 -0.047682 0.197386
vn -0.913202 0.021771 0.406926
vn -0.910537 0.020200 0.412933
vn -0.192617 0.885973 -0.421842
vn -0.199683 0.876858 -0.437318
vn 0.941389 0.020128 -0.336723
vn 0.939141 0.021704 -0.342845
vn 0.192456 -0.886174 0.421493
vn 0.184777 -0.895598 0.404675
vn -0.899326 0.013833 0.437060
vn -0.899326 0.013833 0.437060
vn 0.160920 0.921901 0.352425
vn 0.160920 0.921901 0.352425
vn 0.950040 0.013750 -0.311825
vn 0.950040 0.013750 -0.311825
vn -0.145359 -0.936763 -0.318347
vn -0.145359 -0.936764 -0.318347
vn -0.662408 -0.730196 0.167420
vn -0.632771 -0.756657 -0.164533
vn -0.632771 -0.756657 -0.164533
vn -0.662525 -0.741420 0.106565
vn 0.392996 0.810599 0.434146
vn 0.392996 0.810599 0.434146
vn 0.392996 0.810600 0.434146
vn 0.392996 0.810599 0.434146
vn 0.632771 0.756657 0.164532
vn 0.662408 0.730196 -0.167420
vn 0.662525 0.741420 -0.106566
vn 0.632771 0.756657 0.164532
vn -0.643399 0.284332 -0.710770
vn -0.497848 0.670577 -0.549976
vn -0.497848 0.670577 -0.549976
vn -0.670704 -0.034211 -0.740936
vn 0.669154 0.076048 0.739222
vn 0.497847 -0.670576 0.549979
vn 0.497847 -0.670576 0.549979
vn 0.641983 -0.291347 0.709207
vn 0.713427 0.406428 -0.570823
vn 0.707797 0.297520 -0.640706
vn 0.707797 0.297520 -0.640706
vn 0.713386 0.412621 -0.566414
vn 0.671097 -0.000000 0.741370
vn 0.671060 0.010389 0.741330
vn 0.670683 0.035097 0.740913
vn 0.671097 -0.000000 0.741370
vn -0.707797 -0.297520 0.640706
vn -0.713427 -0.406428 0.570823
vn -0.713386 -0.412621 0.566414
vn -0.707797 -0.297520 0.640706
vn -0.671096 0.000000 -0.741370
vn -0.670949 -0.020990 -0.741207
vn -0.671081 -0.006774 -0.741353
vn -0.671096 0.000000 -0.741370
vn 0.000000 0.000000 1.000000
vn 0.000000 0.000000 1.000000
vn -0.002650 0.011805 0.999927
vn -0.005634 0.025104 0.999669
vn -0.950542 0.310596 0.000000
vn -0.950542 0.310596 0.000000
vn -0.950542 0.310596 0.000000
vn -0.950542 0.310596 0.000000
vn -0.005634 0.025104 -0.999669
vn -0.002650 0.011805 -0.999927
vn 0.000000 0.000000 -1.000000
vn 0.000000 0.000000 -1.000000
vn 0.984702 0.174247 0.000000
vn 0.984702 0.174247 0.000000
vn 0.953094 0.302674 0.000000
vn 0.953094 0.302674 0.000000
vn -0.984702 -0.174247 0.000000
vn -0.984702 -0.174247 0.000000
vn -0.952623 -0.304154 0.000000
vn -0.952623 -0.304154 0.000000
vn -0.044084 0.047357 0.997905
vn -0.020122 0.056098 0.998222
vn -0.018186 -0.008103 0.999802
vn 0.031239 -0.051663 0.998176
vn -0.598927 -0.800804 0.000000
vn -0.598927 -0.800804 0.000000
vn 0.234024 -0.972231 0.000000
vn 0.234024 -0.972231 0.000000
vn 0.031239 -0.051663 -0.998176
vn -0.018186 -0.008103 -0.999802
vn -0.020122 0.056098 -0.998223
vn -0.044084 0.047357 -0.997905
vn 0.602224 0.798327 0.000000
vn 0.602224 0.798327 0.000000
vn -0.214664 0.976688 0.000000
vn -0.214664 0.976688 0.000000
vn 0.183108 -0.184842 0.965559
vn 0.183108 -0.184842 0.965559
vn 0.891984 -0.452068 0.000000
vn 0.891984 -0.452068 0.000000
vn 0.183108 -0.184842 -0.965559
vn 0.183108 -0.184842 -0.965559
vn -0.898742 0.438478 0.000000
vn -0.898742 0.438478 0.000000
s 1
g Plant1
usemtl initialShadingGroup
f 1/99/1 2/100/2 17/101/3 18/149/4
s off
f 3/105/5 4/106/6 6/107/7 5/62/8
s 2
f 19/146/9 20/147/10 8/102/11 7/111/12
s 3
f 2/100/13 8/102/14 20/147/15 17/101/16
s 4
f 7/111/17 1/112/18 18/113/19 19/146/20
s 1
f 10/104/21 9/63/22 13/66/23 14/169/24
s 4
f 11/55/25 10/104/26 14/169/27 15/170/28
s 2
f 15/170/29 16/176/30 12/109/31 11/55/32
s 3
f 9/63/33 12/165/34 16/167/35 13/66/36
s 1
f 14/57/24 13/168/23 4/70/37 3/61/38
s 4
f 15/58/28 14/57/27 3/61/39 5/62/40
s 2
f 5/62/41 6/107/42 16/108/30 15/58/29
s 3
f 13/168/36 16/65/35 6/69/43 4/70/44
s 1
f 18/60/4 17/148/3 9/103/22 10/56/21
s 4
f 19/59/20 18/60/19 10/56/26 11/110/25
s 2
f 11/110/32 12/64/31 20/68/10 19/59/9
s 3
f 17/67/16 20/68/15 12/64/34 9/166/33
s 6
f 35/71/45 23/72/46 24/2/47 36/1/48
s off
f 23/74/49 25/10/50 26/3/51 24/75/52
s 7
f 25/10/53 34/9/54 33/162/55 26/3/56
s 8
f 36/1/57 24/2/58 26/3/59 33/162/60
s 9
f 34/9/61 25/10/62 23/11/63 35/12/64
s 7
f 30/13/65 27/15/66 28/8/67 29/155/68
s 9
f 27/15/69 30/13/70 31/156/71 21/16/72
s 6
f 21/114/73 31/115/74 32/154/75 22/7/76
s 8
f 22/7/77 32/154/78 29/155/79 28/8/80
s 7
f 34/163/54 30/76/65 29/6/68 33/4/55
s 9
f 30/76/70 34/163/61 35/160/64 31/14/71
s 6
f 31/14/74 35/160/45 36/164/48 32/73/75
s 8
f 32/5/78 36/161/57 33/4/60 29/6/79
s 10
f 37/26/81 38/116/82 48/117/83 45/27/84
s off
f 39/31/85 40/24/86 42/118/87 41/119/88
s 11
f 46/159/89 47/19/90 44/18/91 43/25/92
s 12
f 38/17/93 44/18/94 47/19/95 48/157/96
s 13
f 43/25/97 37/26/98 45/27/99 46/159/100
f 46/28/100 45/158/99 49/29/101 50/172/102
s 11
f 50/172/103 51/173/104 47/79/90 46/28/89
s 12
f 48/20/96 47/79/95 51/173/105 52/174/106
s 10
f 45/81/84 48/20/83 52/174/107 49/80/108
s 13
f 50/30/102 49/175/101 39/31/109 41/32/110
s 11
f 41/32/111 42/77/112 51/78/104 50/30/103
s 12
f 52/22/106 51/21/105 42/23/113 40/24/114
s 10
f 49/175/108 52/22/107 40/24/115 39/31/116
s 14
f 67/125/117 55/126/118 56/85/119 68/88/120
s off
f 55/82/121 57/83/122 58/84/123 56/85/124
s 15
f 57/83/125 66/86/126 65/171/127 58/84/128
s 16
f 68/88/129 56/85/130 58/84/131 65/171/132
s 17
f 66/86/133 57/83/134 55/139/135 67/140/136
s 15
f 62/134/137 59/135/138 60/133/139 61/150/140
s 17
f 59/135/141 62/134/142 63/151/143 53/136/144
s 14
f 53/131/145 63/152/146 64/153/147 54/132/148
s 16
f 54/132/149 64/153/150 61/150/151 60/133/152
s 15
f 66/137/126 62/89/137 61/90/140 65/87/127
s 17
f 62/89/142 66/137/133 67/138/136 63/127/143
s 14
f 63/127/146 67/138/117 68/177/120 64/128/147
s 16
f 64/128/150 68/177/129 65/129/132 61/130/151
s 18
f 69/120/153 70/39/154 85/42/155 86/145/156
s off
f 71/33/157 72/34/158 74/35/159 73/36/160
s 19
f 87/144/161 88/41/162 76/40/163 75/45/164
s 20
f 70/39/165 76/40/166 88/41/167 85/42/168
s 21
f 75/45/169 69/46/170 86/141/171 87/144/172
s 18
f 78/92/173 77/142/174 81/122/175 82/93/176
s 21
f 79/91/177 78/92/178 82/93/179 83/94/180
s 19
f 83/94/181 84/97/182 80/96/183 79/91/184
s 20
f 77/95/185 80/96/186 84/97/187 81/98/188
s 18
f 82/52/176 81/37/175 72/34/189 71/53/190
s 21
f 83/51/180 82/52/179 71/53/191 73/54/192
s 19
f 73/54/193 74/124/194 84/123/182 83/51/181
s 20
f 81/37/188 84/38/187 74/35/195 72/34/196
s 18
f 86/121/156 85/42/155 77/44/174 78/143/173
s 21
f 87/48/172 86/47/171 78/49/178 79/50/177
s 19
f 79/50/184 80/43/183 88/41/162 87/48/161
s 20
f 85/42/168 88/41/167 80/43/186 77/44/185
