# This file uses meters as units for non-parametric coordinates.

mtllib Plant3.mtl
g default
v 2.177372 -3.276737 0.869538
v 2.451655 -3.276737 0.255851
v -12.136466 26.170429 28.536341
v -12.285423 26.170429 28.869623
v -12.951918 26.170429 28.171881
v -13.100875 26.170429 28.505163
v -2.060511 -3.276737 -1.024554
v -1.786229 -3.276737 -1.638241
v -12.043673 29.119114 25.226093
v -10.547493 29.119114 25.894800
v -10.550645 29.568705 25.901850
v -12.046824 29.568705 25.233143
v -8.942238 30.349073 17.525778
v -6.467904 30.349073 18.631666
v -6.613700 30.598213 18.628241
v -9.253535 30.598213 17.448385
v -5.475031 21.285807 7.878102
v -2.419389 21.285805 9.243799
v -2.145106 21.285805 8.630112
v -5.200748 21.285807 7.264414
v -0.336096 -3.517693 2.320950
v 0.336096 -3.517693 2.320950
v -31.435516 38.797722 0.542177
v -31.800571 38.797722 0.542177
v -31.435516 38.797722 -0.351015
v -31.800571 38.797722 -0.351015
v -0.336096 -3.517693 -2.320950
v 0.336096 -3.517693 -2.320950
v -28.375519 43.034966 -0.723828
v -28.375519 43.034966 0.914989
v -28.383242 43.681023 0.914989
v -28.383242 43.681023 -0.723828
v -20.079901 44.802410 -1.034388
v -20.079901 44.802410 1.675836
v -20.136265 45.160423 1.541332
v -20.136265 45.160423 -1.350171
v -9.857160 31.778545 -1.805619
v -9.857160 31.778545 1.541332
v -9.184967 31.778545 1.541332
v -9.184967 31.778545 -1.805619
v -0.285196 -3.430157 2.767755
v 0.285196 -3.430157 2.767755
v 12.305926 53.305710 0.791720
v 11.695300 52.484882 0.791720
v 12.305926 53.305710 -0.791720
v 11.695300 52.484882 -0.791720
v -0.285196 -3.430157 -2.767755
v 0.285196 -3.430157 -2.767755
v 0.914843 42.005913 -2.052524
v 0.914843 42.005913 2.052524
v 1.485235 42.005913 2.052524
v 1.485235 42.005913 -2.052524
v 6.522105 49.813828 -1.347857
v 6.522105 49.813828 1.347857
v 7.092496 49.813828 1.347857
v 7.092496 49.813828 -1.347857
vt 0.289290 0.683161
vt 0.287738 0.690642
vt 0.249051 0.624457
vt 0.254614 0.625521
vt 0.380514 0.849062
vt 0.425526 0.586175
vt 0.304109 0.558594
vt 0.317713 0.558574
vt 0.488969 0.013821
vt 0.502573 0.013801
vt 0.284612 0.611586
vt 0.285179 0.606144
vt 0.337286 0.660059
vt 0.327741 0.664730
vt 0.495123 0.555497
vt 0.431483 0.817076
vt 0.379033 0.593047
vt 0.615685 0.785509
vt 0.587617 0.061612
vt 0.597684 0.070472
vt 0.712760 0.003855
vt 0.813165 0.006788
vt 0.774004 0.769754
vt 0.889587 0.590479
vt 0.937756 0.914282
vt 0.872366 0.906826
vt 0.598807 0.000000
vt 0.699255 0.000000
vt 0.688103 0.763784
vt 0.615678 0.763784
vt 0.868661 0.912688
vt 0.797207 0.912688
vt 0.129536 0.000000
vt 0.246917 0.003696
vt 0.201410 0.966689
vt 0.691621 0.794050
vt 0.737974 0.991377
vt 0.907193 0.272666
vt 0.932004 0.392717
vt 0.887413 0.376645
vt 0.000000 0.000129
vt 0.117439 0.000129
vt 0.102265 0.964077
vt 0.015174 0.964077
vt 0.665312 0.985513
vt 0.601150 0.985513
vt 0.884229 0.360938
vt 0.835845 0.360938
vt 0.835845 0.386020
vt 0.884230 0.386020
vt 0.267816 0.622126
vt 0.263508 0.615261
vt 0.280306 0.604719
vt 0.296919 0.684073
vt 0.430186 0.587697
vt 0.539118 0.820167
vt 0.375536 0.852850
vt 0.360727 0.615136
vt 0.254372 0.705554
vt 0.535210 0.831590
vt 0.460207 0.865112
vt 0.230865 0.632585
vt 0.897060 0.271344
vt 0.895065 0.279324
vt 0.875537 0.274445
vt 0.877531 0.266464
vt 0.886095 0.197528
vt 0.934109 0.196636
vt 0.904512 0.000800
vt 0.967299 0.005884
vt 0.829672 0.000000
vt 0.896306 0.000000
vt 0.881873 0.190049
vt 0.844106 0.190049
vt 0.873279 0.268798
vt 0.852697 0.268798
vt 0.392390 0.000000
vt 0.234473 0.548629
vt 0.921922 0.206479
vt 0.948852 0.196257
vt 0.899718 0.275404
vt 0.940491 0.920642
vt 0.787736 0.766796
vt 0.826898 0.003830
vt 0.944479 0.382653
vt 0.213475 0.967579
vt 0.258982 0.004586
vt 0.682084 0.799673
vt 0.114362 0.963948
vt 0.787748 0.811543
vt 0.794693 0.820167
vt 0.983105 0.300027
vt 0.983456 0.308955
vt 0.818851 0.279318
vt 0.901225 0.279318
vt 0.316665 0.879162
vt 0.896144 0.193562
vt 0.674849 0.979889
vt 0.879916 0.581999
vt 0.701609 0.767640
vt 0.627028 0.789220
vt 0.389099 0.601907
vt 0.335097 0.665381
vt 0.970339 0.599687
vt 0.797207 0.581999
vt 0.929162 0.201863
vt 0.975514 0.006862
vt 0.981203 0.592841
vt 0.584378 0.799673
vt 0.744918 1.000000
vt 0.437591 0.816226
vt 0.492186 0.559633
vn 0.869813 0.083054 0.486341
vn 0.859125 0.138486 0.492673
vn 0.884044 -0.052486 0.464449
vn 0.884044 -0.052486 0.464449
vn 0.000000 -1.000000 0.000000
vn 0.000000 -1.000000 0.000000
vn 0.000000 -1.000000 0.000000
vn 0.000000 -1.000000 0.000000
vn -0.935700 -0.052480 -0.348873
vn -0.935700 -0.052480 -0.348873
vn -0.856071 -0.355443 -0.375238
vn -0.887375 -0.272973 -0.371553
vn -0.108504 0.963997 0.242768
vn -0.108504 0.963997 0.242768
vn -0.287723 0.709081 0.643755
vn -0.287723 0.709081 0.643755
vn 0.111147 -0.962187 -0.248682
vn 0.109822 -0.963101 -0.245716
vn 0.283136 -0.720082 -0.633494
vn 0.283136 -0.720082 -0.633494
vn -0.188172 -0.887318 0.421020
vn -0.187761 -0.887841 0.420100
vn 0.926498 0.168584 0.336424
vn 0.896766 0.173556 0.407049
vn 0.187237 0.888506 -0.418928
vn 0.188484 0.886920 -0.421718
vn -0.901319 -0.370588 -0.224251
vn -0.918775 -0.354808 -0.173097
vn -0.358534 -0.477433 0.802192
vn -0.357851 -0.480503 0.800662
vn 0.929701 0.076708 0.360238
vn 0.917193 0.042978 0.396119
vn 0.355240 0.492001 -0.794820
vn 0.355533 0.490727 -0.795477
vn -0.925041 -0.010678 -0.379718
vn -0.950856 -0.104634 -0.291420
vn -0.380460 -0.361423 0.851249
vn -0.380460 -0.361423 0.851249
vn 0.912503 0.031724 0.407837
vn 0.912503 0.031724 0.407837
vn 0.380460 0.361423 -0.851249
vn 0.380460 0.361423 -0.851249
vn -0.912762 0.020976 -0.407952
vn -0.912762 0.020976 -0.407952
vn -0.087906 0.052945 0.994721
vn -0.101382 0.103050 0.989496
vn -0.063342 -0.036549 0.997322
vn -0.063342 -0.036549 0.997322
vn 0.000000 -1.000000 0.000000
vn 0.000000 -1.000000 0.000000
vn 0.000000 -1.000000 0.000000
vn 0.000000 -1.000000 0.000000
vn -0.063342 -0.036549 -0.997322
vn -0.063342 -0.036549 -0.997322
vn -0.004386 -0.265510 -0.964098
vn -0.025423 -0.185669 -0.982283
vn -0.369963 0.929047 0.000000
vn -0.369963 0.929047 0.000000
vn -0.819309 0.573352 0.000000
vn -0.819309 0.573352 0.000000
vn 0.378260 -0.925699 0.000000
vn 0.374112 -0.927384 0.000000
vn 0.810700 -0.585461 0.000000
vn 0.810700 -0.585461 0.000000
vn -0.597264 -0.802045 0.000000
vn -0.597383 -0.801956 0.000000
vn 0.070410 0.118238 0.990486
vn -0.014902 0.122097 0.992406
vn 0.595882 0.803072 0.000000
vn 0.598582 0.801062 0.000000
vn -0.156385 -0.270224 -0.950012
vn -0.227114 -0.254682 -0.939977
vn -0.935102 -0.354379 0.000000
vn -0.934274 -0.356555 0.000000
vn 0.045277 0.050193 0.997713
vn 0.016312 0.032217 0.999348
vn 0.930462 0.366388 0.000000
vn 0.930837 0.365436 0.000000
vn -0.039775 -0.013866 -0.999112
vn -0.109731 -0.064014 -0.991898
vn -0.965490 -0.260438 0.000000
vn -0.965490 -0.260438 0.000000
vn 0.000000 0.022082 0.999756
vn 0.000000 0.022082 0.999756
vn 0.965490 0.260438 0.000000
vn 0.965490 0.260438 0.000000
vn 0.000000 0.014599 -0.999893
vn 0.000000 0.014599 -0.999893
vn 0.011456 0.080019 0.996728
vn 0.061656 0.036546 0.997428
vn 0.109630 -0.005374 0.993958
vn 0.109630 -0.005374 0.993958
vn 0.802337 -0.596871 0.000000
vn 0.802337 -0.596871 0.000000
vn 0.802337 -0.596871 0.000000
vn 0.802337 -0.596871 0.000000
vn 0.109628 -0.005374 -0.993958
vn 0.109628 -0.005374 -0.993958
vn 0.061655 0.036546 -0.997428
vn 0.011456 0.080019 -0.996727
vn 0.750689 -0.660656 0.000000
vn 0.750689 -0.660656 0.000000
vn 0.501919 -0.864915 0.000000
vn 0.501919 -0.864915 0.000000
vn -0.740094 0.672504 0.000000
vn -0.740094 0.672504 0.000000
vn -0.516844 0.856080 0.000000
vn -0.516844 0.856080 0.000000
vn -0.999651 0.026402 0.000000
vn -0.999651 0.026402 0.000000
vn -0.995286 0.096981 0.000000
vn -0.995286 0.096981 0.000000
vn 0.000000 0.015740 0.999876
vn 0.000000 0.015740 0.999876
vn 0.000000 0.030335 0.999540
vn 0.000000 0.022645 0.999744
vn 0.999651 -0.026402 0.000000
vn 0.999651 -0.026402 0.000000
vn 0.995286 -0.096981 0.000000
vn 0.995286 -0.096981 0.000000
vn 0.000000 0.022645 -0.999744
vn 0.000000 0.030335 -0.999540
vn 0.000000 0.015740 -0.999876
vn 0.000000 0.015740 -0.999876
s 1
g Plant3
usemtl initialShadingGroup
f 10/1/1 11/2/2 4/3/3 3/4/4
s off
f 3/51/5 4/52/6 6/53/7 5/11/8
s 2
f 5/11/9 6/12/10 12/103/11 9/14/12
s 3
f 11/2/13 12/59/14 6/62/15 4/3/16
s 4
f 9/14/17 10/54/18 3/51/19 5/11/20
f 13/16/21 14/5/22 10/54/18 9/14/17
s 1
f 14/5/23 15/57/24 11/2/2 10/54/1
s 3
f 15/57/25 16/96/26 12/59/14 11/2/13
s 2
f 9/14/12 12/13/11 16/111/27 13/16/28
s 4
f 17/18/29 18/56/30 14/55/22 13/112/21
s 1
f 18/56/31 19/60/32 15/6/24 14/55/23
s 3
f 19/60/33 20/61/34 16/58/26 15/6/25
s 2
f 13/112/28 16/15/27 20/101/35 17/18/36
s 4
f 7/77/37 1/9/38 18/7/30 17/78/29
s 1
f 1/9/39 2/10/40 19/8/32 18/7/31
s 3
f 2/10/41 8/19/42 20/17/34 19/8/33
s 2
f 17/102/36 20/17/35 8/19/43 7/20/44
s 5
f 30/79/45 31/106/46 24/81/47 23/63/48
s off
f 23/63/49 24/64/50 26/65/51 25/66/52
s 6
f 25/66/53 26/75/54 32/73/55 29/67/56
s 7
f 31/74/57 32/73/58 26/75/59 24/76/60
s 8
f 29/67/61 30/79/62 23/63/63 25/66/64
f 33/69/65 34/70/66 30/68/62 29/97/61
s 5
f 34/70/67 35/107/68 31/80/46 30/68/45
s 7
f 35/71/69 36/72/70 32/73/58 31/74/57
s 6
f 29/97/56 32/73/55 36/72/71 33/69/72
s 8
f 37/24/73 38/104/74 34/25/66 33/26/65
s 5
f 38/104/75 39/108/76 35/82/68 34/25/67
s 7
f 39/105/77 40/99/78 36/31/70 35/32/69
s 6
f 33/26/72 36/31/71 40/99/79 37/24/80
s 8
f 27/21/81 21/22/82 38/23/74 37/100/73
s 5
f 21/22/83 22/84/84 39/83/76 38/23/75
s 7
f 22/27/85 28/28/86 40/29/78 39/30/77
s 6
f 37/100/80 40/29/79 28/28/87 27/21/88
s 9
f 54/92/89 55/93/90 44/85/91 43/39/92
s off
f 43/49/93 44/48/94 46/47/95 45/50/96
s 10
f 45/40/97 46/47/98 56/95/99 53/38/100
s 11
f 55/94/101 56/95/102 46/47/103 44/48/104
s 12
f 53/38/105 54/92/106 43/39/107 45/40/108
f 47/33/109 41/34/110 50/35/111 49/89/112
s 9
f 41/34/113 42/87/114 51/86/115 50/35/116
s 11
f 42/41/117 48/42/118 52/43/119 51/44/120
s 10
f 49/89/121 52/43/122 48/42/123 47/33/124
s 12
f 49/36/112 50/90/111 54/37/106 53/98/105
s 9
f 50/90/116 51/91/115 55/110/90 54/37/89
s 11
f 51/109/120 52/88/119 56/45/102 55/46/101
s 10
f 53/98/100 56/45/99 52/88/122 49/36/121
