# This file uses centimeters as units for non-parametric coordinates.

mtllib Stone2.mtl
g default
v -1.137062 0.046055 0.500000
v 0.989729 -0.020029 0.500000
v -1.137062 0.822608 0.500000
v 0.972785 0.958153 0.500000
v -1.137062 0.620872 -0.370962
v 1.006456 0.855567 -0.339889
v -1.137062 -0.103456 -0.500000
v 0.842136 -0.054010 -0.500000
v -0.821347 0.822608 0.500000
v -0.821347 0.892081 -0.370962
v -0.821347 -0.045047 -0.500000
v -0.821347 0.024517 0.500000
v -0.491722 1.075534 0.500000
v -0.678305 1.075534 -0.484208
v -0.491722 -0.103456 -0.605116
v -0.491722 -0.020029 0.439865
v -0.046104 0.787267 0.383703
v -0.065995 0.859391 -0.589665
v -0.046104 -0.020029 -0.500000
v -0.046104 0.028768 0.573375
v 0.386146 0.877048 0.500000
v 0.248056 0.772687 -0.228308
v 0.386146 0.032181 -0.360418
v 0.386146 -0.020029 0.343346
v 0.847719 0.958153 0.500000
v 0.847719 1.027214 -0.442807
v 0.847719 -0.042189 -0.500000
v 0.847719 -0.020029 0.500000
v 0.847719 0.645417 0.722559
v 0.386146 0.425642 0.722559
v -0.046104 0.425642 0.577172
v -0.491722 0.762797 0.577172
v -0.821347 0.615346 0.500000
v -1.165020 0.548609 0.520793
v -1.137062 0.491588 -0.370962
v -0.821347 0.762797 -0.370962
v -0.491722 0.762797 -0.546185
v -0.046104 0.593161 -0.642109
v 0.386146 0.593161 -0.500000
v 0.847719 0.846029 -0.366715
v 1.137062 0.577903 -0.366715
v 1.137062 0.645417 0.500000
v 0.847719 0.392495 0.722559
v 0.386146 0.253826 0.722559
v -0.046104 0.253826 0.577172
v -0.491722 0.309068 0.616250
v -0.821347 0.309068 0.500000
v -1.137062 0.309068 0.500000
v -1.137062 0.309068 -0.370962
v -0.821347 0.309068 -0.370962
v -0.491722 0.309068 -0.642108
v -0.046104 0.392495 -0.642108
v 0.386146 0.392495 -0.500000
v 0.847719 0.392300 -0.423908
v 1.137062 0.392300 -0.423908
v 0.989729 0.392495 0.500000
v 1.137062 1.027214 -0.162259
v 0.847719 1.027214 -0.162259
v 0.386146 1.213249 -0.162259
v -0.046104 1.158961 -0.162259
v -0.491722 1.075534 -0.162259
v -0.821347 0.892081 -0.162259
v -1.137062 0.620872 -0.162259
v -1.319563 0.491588 -0.162259
v -1.283487 0.309068 -0.162259
v -1.251527 -0.103456 -0.162259
v 1.137062 0.026238 -0.162259
v 1.286724 0.392495 -0.162259
v 1.242578 0.846225 -0.162259
v 1.137062 0.953670 0.227564
v 0.847719 1.158961 0.227564
v 0.386146 1.349594 0.227564
v -0.046104 0.976742 0.227564
v -0.491722 1.075534 0.227564
v -0.821347 0.970060 0.227564
v -1.137062 0.970060 0.227564
v -1.349659 0.673610 0.235398
v -1.137062 0.309068 0.227564
v -1.137062 -0.103456 0.227564
v 0.893413 -0.069884 0.227564
v 1.359888 0.392495 0.227564
v 1.242578 0.846225 0.227564
vt 0.490114 0.664296
vt 0.504083 0.754292
vt 0.374529 0.754292
vt 0.374529 0.664296
vt 0.477150 0.883065
vt 0.374529 0.883065
vt 0.247400 0.754292
vt 0.303664 0.664295
vt 0.374529 0.590776
vt 0.490114 0.664296
vt 0.499634 0.994635
vt 0.374584 0.969498
vt 0.247400 0.883065
vt 0.217295 0.754292
vt 0.216039 0.664295
vt 0.303664 0.590775
vt 0.322580 0.950605
vt 0.196689 0.883065
vt 0.216039 0.664295
vt 0.159775 0.754292
vt 0.244782 0.941743
vt 0.196689 0.883065
vt 0.196689 0.975741
vt 0.106362 0.754291
vt 0.144564 0.883065
vt 0.481128 0.106986
vt 0.527396 0.007587
vt 0.608789 0.007587
vt 0.608789 0.106986
vt 0.682919 0.000000
vt 0.721602 0.104128
vt 0.481128 0.249215
vt 0.608789 0.249215
vt 0.767711 0.007587
vt 0.813342 0.106986
vt 0.665273 0.249215
vt 0.481128 0.372441
vt 0.608789 0.325361
vt 0.705281 0.249215
vt 0.665273 0.325361
vt 0.813342 0.106986
vt 0.789211 0.249215
vt 0.705281 0.325361
vt 0.845983 0.106986
vt 0.845983 0.249215
vt 0.789211 0.325361
vt 0.767711 0.007587
vt 0.845983 0.007587
vt 0.845983 0.366679
vt 0.749202 0.389292
vt 0.749202 0.325361
vt 0.608789 0.424290
vt 0.608789 0.325361
vt 0.499204 0.372441
vt 0.481128 0.410793
vt 0.634509 0.721038
vt 0.690383 0.721038
vt 0.669763 0.809824
vt 0.527685 0.780908
vt 0.634509 0.654118
vt 0.690383 0.654118
vt 0.501715 0.909727
vt 0.501715 0.927832
vt 0.634509 0.516545
vt 0.579628 0.533957
vt 0.000000 0.000000
vt 0.049172 0.000000
vt 0.049172 0.096493
vt 0.000000 0.096493
vt 0.847664 0.394597
vt 0.923346 0.394597
vt 0.919968 0.559673
vt 0.815975 0.518943
vt 0.847664 0.244037
vt 0.923346 0.244037
vt 0.847664 0.138814
vt 0.923346 0.183731
vt 0.996758 0.244037
vt 0.996758 0.394597
vt 0.229698 0.161565
vt 0.274212 0.202362
vt 0.194484 0.269256
vt 0.156005 0.223395
vt 0.326867 0.239772
vt 0.234658 0.317138
vt 0.108668 0.341258
vt 0.085481 0.275647
vt 0.367505 0.315973
vt 0.304446 0.368881
vt 0.107528 0.423803
vt 0.050596 0.389982
vt 0.012117 0.344122
vt 0.433859 0.367291
vt 0.357128 0.431670
vt 0.256306 0.409273
vt 0.019903 0.497323
vt 0.490114 0.434339
vt 0.374529 0.531317
vt 0.308987 0.472061
vt 0.154983 0.494286
vt 0.182508 0.578181
vt 0.050107 0.689270
vt 0.101894 0.538829
vt 0.159775 0.711502
vt 0.364879 0.169311
vt 0.412619 0.169311
vt 0.412619 0.272595
vt 0.364879 0.289631
vt 0.364879 0.116075
vt 0.412619 0.036972
vt 0.364879 0.078367
vt 0.412619 -0.000736
vt 0.767428 0.488722
vt 0.767428 0.626296
vt 0.690383 0.516545
vt 0.767428 0.777610
vt 0.799687 0.881905
vt 0.693823 0.809824
vt 0.819962 0.927244
vt 0.819962 0.807723
vt 0.899340 0.807788
vt 0.899340 0.951914
vt 0.819962 0.741159
vt 0.899340 0.657279
vt 0.949099 0.807788
vt 0.898380 0.955835
vt 0.796214 0.681608
vt 0.899340 0.597178
vt 0.949099 0.746220
vt 0.819962 0.535467
vt 0.899340 0.597178
vt 0.926639 0.654115
vn 0.000000 0.000000 1.000000
vn -0.061184 -0.168227 0.983848
vn -0.112080 -0.063719 0.991654
vn 0.018326 -0.018891 0.999654
vn 0.000000 0.879452 0.475988
vn -0.218779 0.899591 0.377985
vn -0.351666 0.936020 -0.014088
vn -0.243971 0.964983 -0.096361
vn -0.016734 0.180899 -0.983359
vn -0.319610 0.136587 -0.937653
vn -0.292218 0.206601 -0.933769
vn -0.029500 0.318901 -0.947329
vn 0.793481 -0.423063 0.437499
vn 0.810524 -0.527283 0.254998
vn 0.935181 -0.255299 0.245479
vn 0.798228 -0.260166 0.543273
vn -0.972758 -0.026658 0.230285
vn -1.000000 0.000000 0.000000
vn -0.973399 -0.197840 0.115559
vn -0.956826 -0.192520 0.217762
vn -0.071764 0.942004 0.327839
vn -0.110414 0.975810 0.188691
vn -0.214975 -0.006551 -0.976598
vn -0.138883 -0.075739 -0.987408
vn -0.101332 -0.292633 0.950841
vn -0.096471 -0.085037 0.991697
vn -0.135455 0.680175 0.720426
vn -0.169949 0.861352 0.478737
vn 0.150510 -0.102522 -0.983278
vn 0.230944 -0.267400 -0.935501
vn -0.029234 -0.467750 0.883377
vn -0.056251 -0.264913 0.962630
vn -0.165084 0.578548 0.798768
vn -0.065939 0.957195 0.281831
vn 0.186160 -0.115383 -0.975721
vn 0.118021 -0.206144 -0.971378
vn -0.005225 -0.643190 0.765689
vn -0.062413 -0.479428 0.875359
vn 0.156589 0.689175 0.707473
vn 0.290350 0.923225 0.251697
vn 0.054393 0.055223 -0.996991
vn -0.038390 0.031925 -0.998753
vn 0.123154 -0.587670 0.799674
vn 0.221394 -0.342960 0.912887
vn 0.403784 0.815094 0.415429
vn 0.369932 0.922756 0.108036
vn 0.055267 0.172991 -0.983372
vn 0.006997 0.167976 -0.985766
vn 0.657069 -0.206601 0.724966
vn 0.603344 -0.207699 0.769960
vn -0.226181 0.469712 0.853354
vn -0.192938 0.271282 0.942964
vn 0.080039 0.345686 0.934931
vn 0.027095 0.486087 0.873491
vn 0.040957 0.413112 0.909759
vn -0.086907 0.251410 0.963971
vn 0.217165 0.304779 0.927334
vn 0.109786 0.239226 0.964737
vn -0.120675 0.108296 0.986767
vn -0.148685 0.045232 0.987850
vn 0.032414 -0.008873 0.999435
vn 0.027288 0.041567 0.998763
vn -0.977593 0.203120 0.055263
vn -0.939169 -0.089808 0.331505
vn -0.815172 0.366271 0.448709
vn -0.827531 0.560491 -0.032295
vn 0.000000 0.000000 -1.000000
vn -0.443760 -0.078376 -0.892712
vn -0.398751 0.028377 -0.916620
vn 0.000000 0.000000 -1.000000
vn -0.325414 0.104826 -0.939743
vn -0.303611 0.041891 -0.951875
vn 0.129534 0.254159 -0.958449
vn 0.128546 0.371793 -0.919373
vn 0.253464 0.289035 -0.923155
vn 0.065381 0.529712 -0.845654
vn -0.041398 0.224797 -0.973526
vn -0.200158 0.333358 -0.921308
vn 0.085332 0.165503 -0.982511
vn 0.169708 -0.057325 -0.983826
vn 0.767527 0.088689 0.634851
vn 0.926523 0.291664 0.237670
vn 0.783008 0.537636 0.312803
vn 0.717944 0.460981 0.521587
vn 0.602716 0.106157 0.790863
vn 0.433428 0.401007 0.807052
vn 0.209401 0.880659 -0.424960
vn 0.360593 0.916048 -0.175583
vn 0.407160 0.811101 -0.419923
vn -0.027737 0.725924 -0.687215
vn 0.049555 0.900033 -0.432996
vn 0.201701 0.541599 -0.816080
vn 0.010959 0.958186 -0.285936
vn 0.215042 0.785993 -0.579631
vn -0.127812 0.987477 -0.092490
vn -0.056368 0.955605 -0.289210
vn -0.480079 0.863840 -0.152662
vn -0.608446 0.785068 0.116020
vn -0.512281 0.822339 -0.247642
vn -0.651617 0.758548 0.000000
vn -0.825339 0.193793 -0.530340
vn -0.979506 0.059455 -0.192440
vn -0.683139 0.597944 -0.419266
vn -0.769380 0.543042 -0.336393
vn -0.878031 0.005792 -0.478568
vn -0.991261 -0.131736 -0.006849
vn -0.901951 0.032410 -0.430621
vn -0.999968 -0.007958 -0.000097
vn 0.945707 -0.246511 -0.211828
vn 0.831321 -0.525769 -0.180198
vn 0.768755 -0.371894 -0.520299
vn 0.807593 -0.251558 -0.533396
vn 0.900408 0.308796 -0.306448
vn 0.806227 0.150441 -0.572158
vn 0.783701 0.535358 -0.314968
vn 0.574075 0.339132 -0.745270
s 1
g pCube2
usemtl initialShadingGroup
f 1/80/1 12/81/2 47/82/3 48/83/4
s 2
f 3/66/5 9/67/6 75/68/7 76/69/8
s 3
f 49/105/9 50/106/10 11/107/11 7/108/12
s 4
f 2/1/13 80/2/14 81/3/15 56/4/16
s 5
f 79/26/17 1/27/18 48/28/19 78/29/20
s 2
f 9/47/6 13/48/21 74/44/22 75/41/7
s 3
f 11/54/11 50/53/10 51/52/23 15/55/24
s 1
f 47/82/3 12/81/2 16/84/25 46/85/26
s 2
f 13/76/21 17/77/27 73/75/28 74/74/22
s 3
f 15/113/24 51/114/23 52/61/29 19/115/30
s 1
f 46/85/26 16/84/25 20/88/31 45/89/32
s 2
f 17/100/27 21/101/33 72/102/34 73/103/28
s 3
f 19/64/30 52/61/29 53/60/35 23/65/36
s 1
f 45/89/32 20/88/31 24/93/37 44/94/38
s 2
f 21/101/33 25/19/39 71/104/40 72/102/34
s 3
f 23/119/36 53/120/35 54/121/41 27/122/42
s 1
f 44/94/38 24/93/37 28/97/43 43/98/44
s 2
f 25/19/39 4/15/45 70/14/46 71/20/40
s 3
f 27/122/42 54/121/41 55/125/47 8/126/48
s 1
f 56/4/49 43/9/44 28/10/43 2/1/50
f 21/101/51 30/99/52 29/16/53 25/19/54
f 17/100/55 31/95/56 30/99/52 21/101/51
f 13/96/57 32/90/58 31/95/56 17/100/55
f 9/91/59 33/86/60 32/90/58 13/96/57
f 34/87/61 33/86/60 9/91/59 3/92/62
s 5
f 77/31/63 34/30/64 3/34/65 76/35/66
s 3
f 5/111/67 10/112/68 36/110/69 35/109/70
f 37/50/71 36/51/69 10/46/68 14/49/72
f 38/57/73 37/116/71 14/117/72 18/118/74
f 39/56/75 38/57/73 18/58/74 22/59/76
f 40/124/77 39/123/75 22/127/76 26/128/78
f 41/129/79 40/124/77 26/128/78 6/132/80
s 4
f 42/8/81 82/7/82 70/14/83 4/15/84
s 1
f 25/19/54 29/16/53 42/8/85 4/15/86
f 30/99/52 44/94/38 43/98/44 29/16/53
f 31/95/56 45/89/32 44/94/38 30/99/52
f 32/90/58 46/85/26 45/89/32 31/95/56
f 33/86/60 47/82/3 46/85/26 32/90/58
f 48/83/4 47/82/3 33/86/60 34/87/61
s 5
f 78/29/20 48/28/19 34/30/64 77/31/63
s 3
f 35/109/70 36/110/69 50/106/10 49/105/9
f 51/52/23 50/53/10 36/51/69 37/50/71
f 52/61/29 51/114/23 37/116/71 38/57/73
f 53/60/35 52/61/29 38/57/73 39/56/75
f 54/121/41 53/120/35 39/123/75 40/124/77
f 55/125/47 54/121/41 40/124/77 41/129/79
s 4
f 56/4/16 81/3/15 82/7/82 42/8/81
s 1
f 42/8/85 29/16/53 43/9/44 56/4/49
s 2
f 58/22/87 57/18/88 6/21/89 26/23/90
f 59/130/91 58/131/87 26/128/90 22/127/92
f 60/62/93 59/63/91 22/59/92 18/58/94
f 61/70/95 60/71/93 18/72/94 14/73/96
f 62/42/97 61/45/95 14/49/96 10/46/98
f 63/39/99 62/42/97 10/46/98 5/43/100
s 5
f 35/40/101 64/36/102 63/39/103 5/43/104
f 49/38/105 65/33/106 64/36/102 35/40/101
f 7/37/107 66/32/108 65/33/106 49/38/105
s 4
f 68/6/109 67/5/110 8/11/111 55/12/112
f 69/13/113 68/6/109 55/12/112 41/17/114
f 57/18/115 69/13/113 41/17/114 6/21/116
s 2
f 71/20/40 70/14/46 57/18/88 58/22/87
f 72/24/34 71/20/40 58/22/87 59/25/91
f 73/75/28 72/78/34 59/79/91 60/71/93
f 74/74/22 73/75/28 60/71/93 61/70/95
f 75/41/7 74/44/22 61/45/95 62/42/97
f 76/35/8 75/41/7 62/42/97 63/39/99
s 5
f 64/36/102 77/31/63 76/35/66 63/39/103
f 65/33/106 78/29/20 77/31/63 64/36/102
f 66/32/108 79/26/17 78/29/20 65/33/106
s 4
f 81/3/15 80/2/14 67/5/110 68/6/109
f 82/7/82 81/3/15 68/6/109 69/13/113
f 70/14/83 82/7/82 69/13/113 57/18/115
