# This file uses centimeters as units for non-parametric coordinates.

mtllib Trash7.mtl
g default
v 0.037011 0.000000 -0.325469
v -0.100187 0.000000 -0.319788
v -0.251002 0.000000 -0.182710
v -0.276565 0.000000 -0.028216
v -0.125750 0.000000 0.075874
v 0.037011 0.000000 0.008348
v 0.109447 0.000000 -0.142066
v 0.037011 0.127600 -0.292480
v -0.100187 0.127600 -0.286800
v -0.230712 0.127600 -0.182710
v -0.256275 0.127600 -0.028216
v -0.065062 0.127600 0.075874
v 0.037011 0.127600 0.008348
v 0.109447 0.127600 -0.142066
v 0.037011 0.255199 -0.292480
v -0.125750 0.255199 -0.329630
v -0.256275 0.255199 -0.225540
v -0.256275 0.255199 -0.058593
v -0.125750 0.302501 0.045497
v 0.063029 0.351674 0.008348
v 0.109447 0.351674 -0.142066
v -0.056922 0.302501 -0.142066
v 0.277401 0.000000 -0.270838
v 0.099011 0.000000 -0.231327
v 0.099011 0.000000 -0.073377
v 0.220613 0.000000 -0.033866
v 0.352555 0.000000 -0.137307
v 0.195992 0.190268 -0.240748
v 0.099011 0.210826 -0.201237
v 0.099011 0.210826 -0.073377
v 0.220613 0.210826 -0.033866
v 0.271146 0.190268 -0.137307
v 0.187003 0.210826 -0.137307
v 0.206263 0.000000 -0.168891
v -0.093373 0.000000 -0.029998
v -0.093373 0.000000 0.227338
v 0.208806 0.000000 0.331525
v 0.398568 0.000000 0.086525
v 0.157959 0.154456 -0.138768
v -0.093373 0.154456 -0.029998
v -0.093373 0.154456 0.208740
v 0.194281 0.154456 0.302204
v 0.335739 0.154456 0.105925
v 0.194281 0.376674 -0.123462
v -0.093373 0.376674 -0.029998
v -0.093373 0.308912 0.272460
v 0.194281 0.308912 0.365924
v 0.372061 0.308912 0.121231
v 0.114775 0.376674 0.121231
v 0.397376 0.000000 -0.117620
v 0.368764 0.000000 -0.253832
v 0.275171 0.000000 -0.347426
v 0.157237 0.000000 -0.367295
v 0.026506 0.000000 -0.388001
v -0.136891 0.000000 -0.388039
v -0.254825 0.000000 -0.327948
v -0.315752 0.000000 -0.253832
v -0.408508 0.000000 -0.116421
v -0.429214 0.000000 0.014310
v -0.375843 0.000000 0.125564
v -0.336693 0.000000 0.286353
v -0.243100 0.000000 0.379947
v -0.104225 0.000000 0.444882
v 0.026506 0.000000 0.465587
v 0.157237 0.000000 0.397182
v 0.312046 0.000000 0.387480
v 0.405639 0.000000 0.293887
v 0.428854 0.000000 0.125564
v 0.418081 0.000000 0.013111
v 0.342814 0.016503 -0.117620
v 0.339102 0.033985 -0.209431
v 0.245509 0.033985 -0.303024
v 0.157237 0.017614 -0.324644
v 0.026506 0.017614 -0.345350
v -0.136891 0.033985 -0.348498
v -0.231055 0.033985 -0.265757
v -0.291983 0.033985 -0.231182
v -0.340658 0.033985 -0.116421
v -0.361364 0.048200 0.014310
v -0.305797 0.048200 0.098699
v -0.266647 0.048200 0.259489
v -0.243100 0.048200 0.319324
v -0.104225 0.033985 0.344701
v 0.026506 0.033985 0.426029
v 0.144133 0.016503 0.348385
v 0.298942 0.016503 0.338683
v 0.351077 0.016503 0.293887
v 0.374293 0.016503 0.125564
v 0.363520 0.016503 0.013111
v 0.026506 0.105765 -0.005167
vt 0.532388 0.454971
vt 0.532388 0.362531
vt 0.608736 0.362531
vt 0.608736 0.454971
vt 0.532388 0.300251
vt 0.608736 0.300251
vt 0.685084 0.380707
vt 0.685084 0.480598
vt 0.532388 0.536990
vt 0.608736 0.517252
vt 0.713386 0.318426
vt 0.685084 0.542879
vt 0.123022 0.747762
vt 0.213020 0.747762
vt 0.213020 0.824110
vt 0.123022 0.824110
vt 0.322757 0.747762
vt 0.303019 0.824110
vt 0.213020 0.958182
vt 0.123022 0.958182
vt 0.303019 0.900458
vt 0.680422 0.597060
vt 0.774930 0.597060
vt 0.774930 0.723205
vt 0.698426 0.723205
vt 0.434854 0.828584
vt 0.434854 0.748688
vt 0.548699 0.766692
vt 0.548699 0.828584
vt 0.434854 0.890477
vt 0.560999 0.890477
vt 0.345281 0.519319
vt 0.499255 0.519319
vt 0.488127 0.611735
vt 0.345281 0.611735
vt 0.526253 0.704152
vt 0.345281 0.744696
vt 0.295805 0.721543
vt 0.198419 0.743771
vt 0.239601 0.631545
vt 0.120321 0.681490
vt 0.339146 0.631545
vt 0.120321 0.581599
vt 0.311373 0.541546
vt 0.198419 0.519319
vt 0.919702 0.720845
vt 0.861675 0.697204
vt 0.914324 0.658953
vt 0.861675 0.620701
vt 0.964670 0.658953
vt 0.934434 0.597060
vt 0.891636 0.593069
vt 0.719521 0.537145
vt 0.844064 0.446660
vt 0.719521 0.356174
vt 0.998008 0.446660
vt 0.891636 0.300251
vt 0.432448 0.037867
vt 0.488448 0.093867
vt 0.461881 0.111615
vt 0.405881 0.055615
vt 0.500337 0.164431
vt 0.474817 0.164431
vt 0.283662 0.242653
vt 0.350947 0.020748
vt 0.350947 0.053394
vt 0.512726 0.242653
vt 0.487206 0.242653
vt 0.272726 0.008359
vt 0.272726 0.041005
vt 0.512749 0.340419
vt 0.489090 0.340419
vt 0.205441 0.001913
vt 0.205441 0.034559
vt 0.476794 0.410983
vt 0.439583 0.396761
vt 0.104727 0.015803
vt 0.104727 0.048450
vt 0.432448 0.447439
vt 0.418895 0.433216
vt 0.048727 0.071804
vt 0.077924 0.079644
vt 0.350230 0.502938
vt 0.350230 0.462341
vt 0.042922 0.164431
vt 0.072119 0.172272
vt 0.272008 0.515327
vt 0.272008 0.474730
vt 0.001992 0.242653
vt 0.025661 0.242653
vt 0.205441 0.483393
vt 0.221515 0.441482
vt 0.014381 0.320874
vt 0.074323 0.320874
vt 0.109234 0.459968
vt 0.125309 0.418057
vt 0.053234 0.403968
vt 0.089507 0.403968
vt 0.426997 0.901383
vt 0.344906 0.901383
vt 0.344906 0.825036
vt 0.426997 0.825036
vt 0.329611 0.748688
vt 0.426997 0.748688
vt 0.001992 0.747762
vt 0.099378 0.747762
vt 0.099378 0.824110
vt 0.038304 0.824110
vt 0.114946 0.958182
vt 0.001992 0.928760
vt 0.674121 0.673015
vt 0.567383 0.673015
vt 0.567383 0.546870
vt 0.625410 0.559171
vt 0.781768 0.597060
vt 0.854527 0.597060
vt 0.854527 0.723205
vt 0.781768 0.723205
vt 0.745986 0.116976
vt 0.745986 0.296259
vt 0.653570 0.296259
vt 0.653570 0.145878
vt 0.520608 0.296259
vt 0.520608 0.124145
vt 0.745986 0.001913
vt 0.653570 0.039505
vt 0.561153 0.017772
vt 0.752534 0.296259
vt 0.752534 0.115454
vt 0.844950 0.124145
vt 0.844950 0.296259
vt 0.752534 0.001913
vt 0.844950 0.039505
vt 0.937367 0.124145
vt 0.937367 0.296259
vt 0.937367 0.017772
vn -0.040052 0.250100 -0.967391
vn -0.040052 0.250100 -0.967391
vn 0.039033 0.029748 -0.998795
vn 0.034719 0.041971 -0.998515
vn -0.643633 0.148232 -0.750843
vn -0.643633 0.148232 -0.750843
vn -0.636097 -0.090088 -0.766332
vn -0.635473 -0.095716 -0.766167
vn -0.974665 0.154987 -0.161270
vn -0.974665 0.154987 -0.161270
vn -0.991859 0.027323 -0.124378
vn -0.993134 0.002489 -0.116959
vn -0.512992 0.162781 0.842818
vn -0.512992 0.162781 0.842818
vn -0.532893 0.106073 0.839508
vn -0.532628 0.106869 0.839575
vn 0.451663 -0.107409 0.885700
vn 0.451663 -0.107409 0.885700
vn 0.372038 0.024252 0.927901
vn 0.377079 0.016375 0.926036
vn 0.900969 0.000000 0.433884
vn 0.900969 0.000000 0.433884
vn 0.919312 -0.034007 0.392057
vn 0.919109 -0.033598 0.392568
vn 0.916125 0.051394 -0.397585
vn 0.916125 0.051394 -0.397585
vn 0.908650 0.024451 -0.416841
vn 0.908136 0.022725 -0.418058
vn 0.103084 -0.154579 -0.982588
vn 0.103084 -0.154579 -0.982588
vn -0.581400 -0.361186 -0.729053
vn -0.581400 -0.361186 -0.729053
vn -0.989445 -0.121683 -0.078687
vn -0.989445 -0.121683 -0.078687
vn -0.548295 0.057559 0.834302
vn -0.548295 0.057559 0.834302
vn 0.321983 0.099662 0.941485
vn 0.321983 0.099662 0.941485
vn 0.928691 -0.053917 0.366913
vn 0.928691 -0.053917 0.366913
vn 0.900969 0.000000 -0.433884
vn 0.900969 0.000000 -0.433884
vn -0.077660 0.936157 -0.342899
vn -0.063077 0.972953 -0.222224
vn -0.208198 0.962095 -0.176145
vn -0.194675 0.976856 -0.088628
vn -0.248512 0.967573 -0.045207
vn -0.268794 0.958134 -0.098637
vn -0.274595 0.956967 -0.093867
vn -0.274128 0.927464 -0.254292
vn -0.268556 0.089394 -0.959107
vn -0.268556 0.089394 -0.959107
vn -0.268556 0.089394 -0.959107
vn -0.268556 0.089394 -0.959107
vn -1.000000 -0.000000 0.000000
vn -1.000000 -0.000000 0.000000
vn -1.000000 -0.000000 0.000000
vn -1.000000 -0.000000 0.000000
vn -0.309017 0.000000 0.951057
vn -0.309017 0.000000 0.951057
vn -0.309017 0.000000 0.951057
vn -0.309017 0.000000 0.951057
vn 0.748691 0.151961 0.645267
vn 0.748691 0.151961 0.645267
vn 0.748691 0.151961 0.645267
vn 0.748691 0.151961 0.645267
vn 0.783062 0.374321 -0.496687
vn 0.783062 0.374321 -0.496687
vn 0.783062 0.374321 -0.496687
vn 0.783062 0.374321 -0.496687
vn 0.171718 0.968995 -0.177657
vn 0.065295 0.993811 -0.089871
vn 0.113973 0.990280 -0.079728
vn 0.000000 1.000000 0.000000
vn 0.095226 0.994975 -0.030941
vn 0.235599 0.964300 -0.120912
vn -0.409864 0.024823 -0.911809
vn -0.409864 0.024823 -0.911809
vn -0.375843 0.045694 -0.925556
vn -0.377689 0.044574 -0.924859
vn -1.000000 0.000000 0.000000
vn -1.000000 0.000000 0.000000
vn -1.000000 -0.000000 0.000000
vn -1.000000 -0.000000 0.000000
vn -0.314995 0.131005 0.940008
vn -0.314995 0.131005 0.940008
vn -0.311079 -0.123389 0.942340
vn -0.311350 -0.118475 0.942881
vn 0.781169 0.214440 0.586337
vn 0.781169 0.214440 0.586337
vn 0.804494 0.006056 0.593930
vn 0.804943 -0.025520 0.592803
vn 0.750276 0.358926 -0.555210
vn 0.750276 0.358926 -0.555210
vn 0.796531 0.125295 -0.591473
vn 0.797988 0.109281 -0.592683
vn -0.350648 0.060841 -0.934529
vn -0.350648 0.060841 -0.934529
vn -1.000000 -0.000000 0.000000
vn -1.000000 -0.000000 0.000000
vn -0.287667 -0.365245 0.885350
vn -0.287667 -0.365245 0.885350
vn 0.786703 -0.238197 0.569526
vn 0.786703 -0.238197 0.569526
vn 0.797495 -0.105528 -0.594025
vn 0.797495 -0.105528 -0.594025
vn 0.131617 0.990378 0.042765
vn -0.081344 0.990378 0.111960
vn 0.051497 0.986017 0.158490
vn -0.125371 0.958291 0.256829
vn 0.078703 0.967023 0.242222
vn 0.252388 0.958291 0.134087
vn 0.378885 0.924934 -0.030712
vn 0.427634 0.858591 -0.282754
vn 0.461245 0.867045 -0.188379
vn 0.400121 0.916065 -0.027006
vn 0.259438 0.862321 -0.434849
vn 0.246250 0.863817 -0.439523
vn 0.048349 0.899646 -0.433936
vn 0.045150 0.893058 -0.447671
vn 0.052968 0.880328 -0.471400
vn 0.053515 0.883652 -0.465075
vn -0.110736 0.849725 -0.515466
vn -0.163890 0.846109 -0.507188
vn -0.339506 0.819057 -0.462473
vn -0.350794 0.817907 -0.456038
vn -0.471266 0.809572 -0.350003
vn -0.475441 0.809072 -0.345482
vn -0.518146 0.835765 -0.181718
vn -0.519868 0.827560 -0.211851
vn -0.523857 0.850406 0.048824
vn -0.523849 0.847028 0.090144
vn -0.523382 0.830972 0.188566
vn -0.523485 0.831146 0.187509
vn -0.532470 0.820370 0.208489
vn -0.532673 0.818427 0.215494
vn -0.200242 0.870556 0.449483
vn -0.319645 0.839583 0.439235
vn -0.138357 0.886689 0.441180
vn -0.123547 0.886487 0.445955
vn 0.008034 0.895527 0.444935
vn 0.024995 0.894921 0.445524
vn 0.160600 0.912203 0.376954
vn 0.155762 0.913856 0.374973
vn 0.091410 0.948267 0.304029
vn 0.111530 0.947240 0.300494
vn 0.284565 0.955090 0.082620
vn 0.277245 0.950400 0.140979
vn 0.289486 0.957102 0.012385
vn 0.289483 0.957092 0.013211
vn 0.289313 0.956529 -0.036740
vn 0.289298 0.956480 -0.038124
vn 0.289906 0.955350 0.057113
vn 0.201964 0.978772 -0.034873
vn 0.038588 0.999187 -0.011696
vn 0.050138 0.978717 -0.198995
vn -0.026562 0.960797 -0.275977
vn 0.075497 0.965265 -0.250129
vn -0.008421 0.979597 -0.200796
vn -0.115679 0.980979 -0.155879
vn -0.148492 0.983523 -0.103110
vn -0.161063 0.981677 -0.101824
vn -0.149318 0.987213 -0.055812
vn -0.151991 0.986529 0.060487
vn -0.152191 0.987272 0.046162
vn -0.003469 0.985112 0.171877
vn -0.025298 0.981102 0.191833
vn 0.067053 0.984206 0.163838
vn 0.126414 0.970966 0.203086
vn 0.067629 0.977427 0.200155
vn 0.192682 0.977768 0.082726
vn 0.242696 0.969960 0.016635
vn 0.257544 0.965723 -0.032423
s 1
g pCylinder50
usemtl initialShadingGroup
f 1/99/1 2/100/2 9/101/3 8/102/4
s 2
f 2/9/5 3/1/6 10/4/7 9/10/8
s 3
f 3/1/9 4/2/10 11/3/11 10/4/12
s 4
f 4/2/13 5/5/14 12/6/15 11/3/16
s 5
f 5/105/17 6/106/18 13/107/19 12/108/20
s 6
f 6/13/21 7/14/22 14/15/23 13/16/24
s 7
f 7/14/25 1/17/26 8/18/27 14/15/28
s 1
f 8/102/4 9/101/3 16/103/29 15/104/30
s 2
f 9/10/8 10/4/7 17/8/31 16/12/32
s 3
f 10/4/12 11/3/11 18/7/33 17/8/34
s 4
f 11/3/16 12/6/15 19/11/35 18/7/36
s 5
f 12/108/20 13/107/19 20/109/37 19/110/38
s 6
f 13/16/24 14/15/23 21/19/39 20/20/40
s 7
f 14/15/28 8/18/27 15/21/41 21/19/42
s 8
f 15/38/43 16/39/44 22/40/45
f 16/39/44 17/41/46 22/40/45
f 17/41/46 18/43/47 22/40/45
f 18/43/47 19/45/48 22/40/45
f 19/45/48 20/44/49 22/40/45
f 20/44/49 21/42/50 22/40/45
f 21/42/50 15/38/43 22/40/45
s off
f 23/111/51 24/112/52 29/113/53 28/114/54
f 24/22/55 25/23/56 30/24/57 29/25/58
f 25/115/59 26/116/60 31/117/61 30/118/62
f 26/30/63 27/26/64 32/29/65 31/31/66
f 27/26/67 23/27/68 28/28/69 32/29/70
s 9
f 28/46/71 29/47/72 33/48/73
f 29/47/72 30/49/74 33/48/73
f 30/49/74 31/51/75 33/48/73
f 31/51/75 32/50/76 33/48/73
f 32/50/76 28/46/71 33/48/73
s 10
f 34/119/77 35/120/78 40/121/79 39/122/80
s 11
f 35/32/81 36/33/82 41/34/83 40/35/84
s 12
f 36/128/85 37/129/86 42/130/87 41/131/88
s 13
f 37/129/89 38/132/90 43/133/91 42/130/92
s 14
f 38/125/93 34/119/94 39/122/95 43/126/96
s 10
f 39/122/80 40/121/79 45/123/97 44/124/98
s 11
f 40/35/84 41/34/83 46/36/99 45/37/100
s 12
f 41/131/88 42/130/87 47/134/101 46/135/102
s 13
f 42/130/92 43/133/91 48/136/103 47/134/104
s 14
f 43/126/96 39/122/95 44/124/105 48/127/106
s 15
f 44/52/107 45/53/108 49/54/109
f 45/53/108 46/55/110 49/54/109
f 46/55/110 47/57/111 49/54/109
f 47/57/111 48/56/112 49/54/109
f 48/56/112 44/52/107 49/54/109
s 16
f 50/65/113 51/58/114 71/61/115 70/66/116
f 51/58/114 52/59/117 72/60/118 71/61/115
f 52/59/117 53/62/119 73/63/120 72/60/118
f 53/62/119 54/67/121 74/68/122 73/63/120
f 54/67/121 55/71/123 75/72/124 74/68/122
f 55/71/123 56/75/125 76/76/126 75/72/124
f 56/75/125 57/79/127 77/80/128 76/76/126
f 57/79/127 58/83/129 78/84/130 77/80/128
f 58/83/129 59/87/131 79/88/132 78/84/130
f 59/87/131 60/91/133 80/92/134 79/88/132
f 60/91/133 61/95/135 81/96/136 80/92/134
f 61/95/135 62/97/137 82/98/138 81/96/136
f 62/97/137 63/93/139 83/94/140 82/98/138
f 63/93/139 64/89/141 84/90/142 83/94/140
f 64/89/141 65/85/143 85/86/144 84/90/142
f 65/85/143 66/81/145 86/82/146 85/86/144
f 66/81/145 67/77/147 87/78/148 86/82/146
f 67/77/147 68/73/149 88/74/150 87/78/148
f 68/73/149 69/69/151 89/70/152 88/74/150
f 69/69/151 50/65/113 70/66/116 89/70/152
s 17
f 70/66/153 71/61/154 90/64/155
f 71/61/154 72/60/156 90/64/155
f 72/60/156 73/63/157 90/64/155
f 73/63/157 74/68/158 90/64/155
f 74/68/158 75/72/159 90/64/155
f 75/72/159 76/76/160 90/64/155
f 76/76/160 77/80/161 90/64/155
f 77/80/161 78/84/162 90/64/155
f 78/84/162 79/88/163 90/64/155
f 79/88/163 80/92/164 90/64/155
f 80/92/164 81/96/165 90/64/155
f 81/96/165 82/98/166 90/64/155
f 82/98/166 83/94/167 90/64/155
f 83/94/167 84/90/168 90/64/155
f 84/90/168 85/86/169 90/64/155
f 85/86/169 86/82/170 90/64/155
f 86/82/170 87/78/171 90/64/155
f 87/78/171 88/74/172 90/64/155
f 88/74/172 89/70/173 90/64/155
f 89/70/173 70/66/153 90/64/155
