# This file uses centimeters as units for non-parametric coordinates.

mtllib Trash8.mtl
g default
v 0.146458 0.000000 -0.027774
v 0.017050 0.000000 -0.062466
v -0.115469 0.000000 -0.027774
v -0.134590 0.000000 0.055979
v -0.026249 0.000000 0.139731
v 0.041933 0.000000 0.184359
v 0.117813 0.000000 0.149667
v 0.181149 0.000000 0.055979
v 0.111998 0.184634 -0.027774
v 0.017050 0.184356 -0.062466
v -0.066703 0.211175 -0.027774
v -0.085824 0.211175 0.055979
v -0.068865 0.161913 0.156754
v -0.000683 0.125251 0.201381
v 0.100803 0.130031 0.149667
v 0.146690 0.130031 0.055979
v 0.017050 0.224229 0.055979
v 0.234543 0.000000 -0.064529
v 0.183037 0.000000 -0.103169
v 0.131113 0.000000 -0.185259
v 0.066619 0.000000 -0.245384
v -0.005908 0.000000 -0.245823
v -0.078436 0.000000 -0.267542
v -0.179378 0.000000 -0.215087
v -0.216229 0.000000 -0.129957
v -0.249566 0.000000 -0.064529
v -0.276483 0.000000 0.014906
v -0.236698 0.000000 0.068207
v -0.218976 0.000000 0.163274
v -0.195350 0.000000 0.234425
v -0.078436 0.000000 0.222440
v -0.005908 0.000000 0.233927
v 0.066619 0.000000 0.231215
v 0.151025 0.000000 0.197878
v 0.180806 0.000000 0.145954
v 0.214143 0.000000 0.080526
v 0.228796 0.000000 0.007998
v 0.183359 0.025954 -0.049052
v 0.165803 0.007613 -0.103169
v 0.113879 0.007613 -0.155093
v 0.066619 0.025954 -0.215218
v -0.005908 0.039659 -0.226706
v -0.078436 0.039659 -0.248424
v -0.143864 0.025954 -0.215087
v -0.180715 0.025954 -0.129957
v -0.214052 0.025954 -0.064529
v -0.240612 0.025954 0.007998
v -0.200827 0.025954 0.061299
v -0.167490 0.025954 0.126726
v -0.143864 0.025954 0.197878
v -0.078436 0.038080 0.193603
v -0.005908 0.038080 0.205091
v 0.066619 0.025954 0.199436
v 0.132047 0.025954 0.197878
v 0.161828 0.012172 0.145954
v 0.195165 0.012172 0.080526
v 0.205360 0.025954 0.007998
v -0.005908 0.078223 0.007998
v -0.007550 0.000000 -0.004517
v -0.126103 0.000000 -0.004517
v -0.176434 0.000000 0.012935
v -0.126103 0.000000 0.126673
v -0.025441 0.000000 0.126673
v 0.042781 0.000000 0.012935
v -0.007550 0.071688 -0.074241
v -0.157127 0.071688 -0.081115
v -0.207458 0.071688 0.021166
v -0.126103 0.071688 0.152584
v -0.025441 0.071688 0.126673
v 0.042781 0.071688 0.012935
v -0.025441 0.191297 -0.074241
v -0.157127 0.164162 -0.091921
v -0.207458 0.143375 -0.004745
v -0.126103 0.191297 0.100111
v -0.025441 0.191297 0.100111
v 0.024891 0.191297 0.012935
v -0.075772 0.235934 0.012935
v 0.062208 0.000000 -0.150784
v -0.107303 -0.006689 -0.150762
v -0.107303 0.001259 -0.051947
v 0.047731 0.000000 -0.028066
v 0.107631 0.000000 -0.090586
v 0.062208 0.100649 -0.174643
v -0.107303 0.077679 -0.150762
v -0.107303 0.113273 -0.051947
v 0.047731 0.149393 -0.028066
v 0.107631 0.127333 -0.090586
v 0.027417 0.149393 -0.090586
vt 0.546736 0.496708
vt 0.546736 0.413325
vt 0.756979 0.413325
vt 0.756979 0.496708
vt 0.546736 0.329942
vt 0.707934 0.312994
vt 0.546736 0.285511
vt 0.671435 0.268564
vt 0.310708 0.491688
vt 0.403983 0.491688
vt 0.403983 0.621146
vt 0.310708 0.621146
vt 0.487366 0.491688
vt 0.487366 0.675508
vt 0.403983 0.714928
vt 0.763115 0.405685
vt 0.763115 0.292449
vt 0.834486 0.266652
vt 0.834486 0.397491
vt 0.953567 0.318894
vt 0.905857 0.423288
vt 0.763115 0.423060
vt 0.834486 0.499320
vt 0.998008 0.405685
vt 0.926553 0.510079
vt 0.874850 0.759867
vt 0.874850 0.673076
vt 0.993931 0.673076
vt 0.993931 0.759867
vt 0.803479 0.759867
vt 0.803479 0.742493
vt 0.874850 0.873104
vt 0.993931 0.846659
vt 0.887784 0.527104
vt 0.986164 0.535016
vt 0.986164 0.646536
vt 0.887784 0.611099
vt 0.598259 0.953751
vt 0.560248 0.860564
vt 0.678089 0.856202
vt 0.591679 0.775960
vt 0.674301 0.753853
vt 0.775188 0.767014
vt 0.820810 0.835984
vt 0.775673 0.933301
vt 0.299627 0.001889
vt 0.338097 0.053168
vt 0.338097 0.070326
vt 0.284218 0.052847
vt 0.419825 0.104863
vt 0.389792 0.122021
vt 0.227420 0.241280
vt 0.227420 0.007612
vt 0.227420 0.030944
vt 0.479685 0.169072
vt 0.449652 0.169072
vt 0.155212 0.022199
vt 0.155212 0.041094
vt 0.480121 0.241280
vt 0.461088 0.241280
vt 0.090073 0.055390
vt 0.090073 0.074284
vt 0.038378 0.085039
vt 0.038378 0.103933
vt 0.482711 0.313487
vt 0.005188 0.169072
vt 0.036827 0.169072
vt 0.449521 0.378627
vt 0.002488 0.241280
vt 0.031197 0.241280
vt 0.364767 0.415316
vt 0.013924 0.313487
vt 0.042633 0.313487
vt 0.449521 0.413984
vt 0.364767 0.450673
vt 0.299627 0.448506
vt 0.001992 0.429886
vt 0.038378 0.378627
vt 0.299627 0.483863
vt 0.227420 0.474948
vt 0.072829 0.453408
vt 0.109215 0.402149
vt 0.220542 0.510661
vt 0.174355 0.435339
vt 0.167477 0.471051
vt 0.533281 0.576292
vt 0.623632 0.619656
vt 0.540902 0.676220
vt 0.631253 0.719584
vt 0.548898 0.776269
vt 0.422334 0.735166
vt 0.125941 0.993266
vt 0.027561 0.993266
vt 0.066030 0.859141
vt 0.003786 0.838917
vt 0.140331 0.819432
vt 0.075416 0.784353
vt 0.904308 0.001890
vt 0.904308 0.130726
vt 0.720766 0.130726
vt 0.720489 0.036197
vt 0.904308 0.262661
vt 0.694065 0.214109
vt 0.918966 0.925136
vt 0.890440 0.995089
vt 0.842690 0.514070
vt 0.842690 0.586278
vt 0.803206 0.586278
vt 0.803206 0.514070
vt 0.842690 0.686774
vt 0.816851 0.651417
vt 0.696014 0.514070
vt 0.796232 0.514070
vt 0.796232 0.585442
vt 0.696014 0.585442
vt 0.796232 0.704523
vt 0.696014 0.704523
vt 0.505873 0.888703
vt 0.376435 0.815068
vt 0.470582 0.950739
vt 0.367991 0.892377
vt 0.216672 0.762477
vt 0.309749 0.903410
vt 0.237888 0.946900
vt 0.193258 0.723788
vt 0.018353 0.690060
vt 0.017100 0.535710
vt 0.165834 0.535710
vt 0.129873 0.690060
vt 0.017100 0.476074
vt 0.143871 0.476074
vn 0.295306 0.027578 -0.955005
vn 0.295306 0.027578 -0.955005
vn 0.295306 0.027578 -0.955005
vn 0.295306 0.027578 -0.955005
vn -0.301091 0.037123 -0.952873
vn -0.301091 0.037123 -0.952872
vn -0.301091 0.037123 -0.952872
vn -0.301091 0.037123 -0.952872
vn -0.951109 0.219638 -0.217140
vn -0.951109 0.219639 -0.217140
vn -0.951109 0.219638 -0.217140
vn -0.951109 0.219639 -0.217140
vn -0.828714 -0.011869 0.559547
vn -0.828714 -0.011869 0.559547
vn -0.828714 -0.011869 0.559547
vn -0.828714 -0.011869 0.559547
vn -0.576874 -0.262909 0.773367
vn -0.576873 -0.262909 0.773367
vn -0.576873 -0.262909 0.773367
vn -0.576874 -0.262909 0.773367
vn 0.436651 0.042065 0.898647
vn 0.436651 0.042065 0.898647
vn 0.436651 0.042065 0.898647
vn 0.436651 0.042065 0.898647
vn 0.851582 0.168539 0.496390
vn 0.851582 0.168539 0.496390
vn 0.851582 0.168539 0.496390
vn 0.851582 0.168539 0.496390
vn 0.926286 0.202878 -0.317546
vn 0.926286 0.202878 -0.317546
vn 0.926286 0.202878 -0.317546
vn 0.926286 0.202878 -0.317546
vn 0.418142 0.907260 0.045126
vn 0.137954 0.938679 -0.315993
vn 0.230969 0.946681 0.224607
vn 0.051294 0.977694 -0.203677
vn -0.121362 0.956436 0.265523
vn 0.015439 0.844483 0.535359
vn 0.178772 0.803057 0.568454
vn 0.400302 0.800160 0.446656
vn 0.565124 0.777754 0.275198
vn 0.482374 0.852669 -0.200677
vn 0.304942 0.886114 -0.349018
vn 0.282037 0.916861 -0.282525
vn 0.473068 0.854421 -0.214876
vn 0.409307 0.867750 -0.281918
vn 0.361894 0.896411 -0.255890
vn 0.265815 0.712431 -0.649449
vn 0.328723 0.753673 -0.569138
vn 0.198507 0.503437 -0.840920
vn 0.195168 0.507723 -0.839123
vn -0.087624 0.470050 -0.878280
vn -0.086878 0.470003 -0.878379
vn -0.558062 0.726559 -0.400848
vn -0.509056 0.605478 -0.611766
vn -0.568168 0.777454 -0.269722
vn -0.569613 0.779431 -0.260821
vn -0.580262 0.779156 -0.237090
vn -0.575473 0.777451 -0.253773
vn -0.570522 0.818768 0.064212
vn -0.572219 0.818429 0.052331
vn -0.474449 0.846308 0.242200
vn -0.467666 0.858462 0.210549
vn -0.403836 0.905295 0.131750
vn -0.417627 0.898503 0.135203
vn -0.280949 0.910232 0.304214
vn -0.181971 0.867952 0.462111
vn -0.051641 0.659298 0.750106
vn -0.053164 0.658126 0.751029
vn -0.015309 0.645798 0.763355
vn -0.024401 0.642296 0.766068
vn 0.132691 0.640393 0.756498
vn 0.137088 0.634460 0.760702
vn 0.479917 0.664863 0.572396
vn 0.314528 0.615883 0.722330
vn 0.579106 0.766191 0.278545
vn 0.622447 0.727816 0.287825
vn 0.614331 0.760510 0.210290
vn 0.594244 0.772819 0.222766
vn 0.602993 0.797303 0.026598
vn 0.601718 0.798363 0.023492
vn 0.195326 0.954274 -0.226292
vn 0.199069 0.936846 -0.287561
vn 0.026025 0.999660 -0.001797
vn 0.351608 0.925263 -0.142337
vn 0.306386 0.944118 -0.121526
vn 0.119365 0.979714 -0.160973
vn -0.131625 0.985075 -0.110916
vn -0.231534 0.969202 -0.083904
vn -0.213114 0.972074 -0.098259
vn -0.212429 0.972884 -0.091492
vn -0.217370 0.976058 0.007880
vn -0.220490 0.965254 0.140246
vn -0.240772 0.965677 0.097454
vn -0.217538 0.969952 0.108952
vn -0.109281 0.979513 0.169148
vn 0.077649 0.976923 0.198976
vn 0.079524 0.968880 0.234409
vn 0.227515 0.968491 0.101301
vn 0.327173 0.943426 0.053897
vn 0.250797 0.952596 0.172226
vn 0.239056 0.966250 0.095986
vn 0.017988 -0.712237 -0.701708
vn 0.017988 -0.712237 -0.701708
vn 0.064874 -0.346399 -0.935841
vn 0.058173 -0.409763 -0.910335
vn -0.645253 -0.537924 -0.542482
vn -0.645253 -0.537924 -0.542482
vn -0.796874 -0.305985 -0.520927
vn -0.821666 -0.252562 -0.510957
vn -0.843026 -0.290255 0.452835
vn -0.843026 -0.290255 0.452835
vn -0.859944 0.001039 0.510388
vn -0.856731 0.037364 0.514408
vn 0.125648 -0.176432 0.976260
vn 0.125648 -0.176432 0.976260
vn 0.126388 0.140319 0.982007
vn 0.126478 0.135219 0.982710
vn 0.682862 -0.319494 -0.656981
vn 0.682862 -0.319494 -0.656981
vn 0.840903 0.038623 -0.539805
vn 0.825749 -0.016201 -0.563806
vn 0.091003 -0.043019 -0.994921
vn 0.091003 -0.043019 -0.994921
vn -0.873195 -0.106381 -0.475619
vn -0.873195 -0.106381 -0.475619
vn -0.824188 0.214724 0.524030
vn -0.824188 0.214724 0.524030
vn 0.121304 0.311397 0.942506
vn 0.121304 0.311397 0.942506
vn 0.855024 0.119967 0.504521
vn 0.855024 0.119967 0.504521
vn 0.855024 0.119967 0.504521
vn 0.855024 0.119967 0.504521
vn 0.858850 0.128464 -0.495857
vn 0.858850 0.128464 -0.495857
vn 0.077258 0.904831 -0.418704
vn -0.414632 0.868209 -0.272568
vn -0.150503 0.986993 -0.056512
vn -0.570310 0.820151 -0.045812
vn -0.406500 0.886907 0.219438
vn 0.202685 0.914152 0.351061
vn 0.405371 0.914152 0.000000
vn -0.058633 -0.127678 -0.990081
vn -0.058633 -0.127678 -0.990081
vn -0.058633 -0.127678 -0.990081
vn -0.058633 -0.127678 -0.990081
vn -1.000000 0.000000 -0.000001
vn -1.000000 0.000000 -0.000001
vn -1.000000 0.000000 -0.000001
vn -1.000000 0.000000 -0.000001
vn -0.152239 0.000000 0.988344
vn -0.152239 0.000000 0.988344
vn -0.152239 0.000000 0.988344
vn -0.152239 0.000000 0.988344
vn 0.722073 0.000000 0.691817
vn 0.722073 0.000000 0.691817
vn 0.722073 0.000000 0.691817
vn 0.722073 0.000000 0.691817
vn 0.849453 -0.054922 -0.524799
vn 0.849453 -0.054922 -0.524799
vn 0.849453 -0.054922 -0.524799
vn 0.849453 -0.054922 -0.524799
vn -0.081929 0.847075 -0.525121
vn -0.276634 0.867171 -0.414112
vn -0.124554 0.942660 -0.309642
vn -0.318841 0.911584 -0.259529
vn -0.064006 0.997733 0.020797
vn 0.251767 0.915475 -0.313878
s off
g pCylinder40
usemtl initialShadingGroup
f 1/98/1 2/99/2 10/100/3 9/101/4
f 2/99/5 3/102/6 11/103/7 10/100/8
f 3/1/9 4/2/10 12/3/11 11/4/12
f 4/2/13 5/5/14 13/6/15 12/3/16
f 5/5/17 6/7/18 14/8/19 13/6/20
f 6/104/21 7/105/22 15/45/23 14/44/24
f 7/9/25 8/10/26 16/11/27 15/12/28
f 8/10/29 1/13/30 9/14/31 16/11/32
s 1
f 9/38/33 10/39/34 17/40/35
f 10/39/34 11/41/36 17/40/35
f 11/41/36 12/42/37 17/40/35
f 12/42/37 13/43/38 17/40/35
f 13/43/38 14/44/39 17/40/35
f 14/44/39 15/45/40 17/40/35
f 15/12/40 16/11/41 17/15/35
f 16/11/41 9/14/33 17/15/35
s 2
f 18/46/42 19/47/43 39/48/44 38/49/45
f 19/47/43 20/50/46 40/51/47 39/48/44
f 20/50/46 21/55/48 41/56/49 40/51/47
f 21/55/48 22/59/50 42/60/51 41/56/49
f 22/106/50 23/107/52 43/108/53 42/109/51
f 23/107/52 24/110/54 44/111/55 43/108/53
f 24/74/54 25/75/56 45/71/57 44/68/55
f 25/75/56 26/79/58 46/76/59 45/71/57
f 26/79/58 27/83/60 47/80/61 46/76/59
f 27/83/60 28/85/62 48/84/63 47/80/61
f 28/85/62 29/81/64 49/82/65 48/84/63
f 29/81/64 30/77/66 50/78/67 49/82/65
f 30/77/66 31/72/68 51/73/69 50/78/67
f 31/72/68 32/69/70 52/70/71 51/73/69
f 32/69/70 33/66/72 53/67/73 52/70/71
f 33/66/72 34/63/74 54/64/75 53/67/73
f 34/63/74 35/61/76 55/62/77 54/64/75
f 35/61/76 36/57/78 56/58/79 55/62/77
f 36/57/78 37/53/80 57/54/81 56/58/79
f 37/53/80 18/46/42 38/49/45 57/54/81
s 3
f 38/49/82 39/48/83 58/52/84
f 39/48/83 40/51/85 58/52/84
f 40/51/85 41/56/86 58/52/84
f 41/56/86 42/60/87 58/52/84
f 42/60/87 43/65/88 58/52/84
f 43/65/88 44/68/89 58/52/84
f 44/68/89 45/71/90 58/52/84
f 45/71/90 46/76/91 58/52/84
f 46/76/91 47/80/92 58/52/84
f 47/80/92 48/84/93 58/52/84
f 48/84/93 49/82/94 58/52/84
f 49/82/94 50/78/95 58/52/84
f 50/78/95 51/73/96 58/52/84
f 51/73/96 52/70/97 58/52/84
f 52/70/97 53/67/98 58/52/84
f 53/67/98 54/64/99 58/52/84
f 54/64/99 55/62/100 58/52/84
f 55/62/100 56/58/101 58/52/84
f 56/58/101 57/54/102 58/52/84
f 57/54/102 38/49/82 58/52/84
s 4
f 59/120/103 60/121/104 66/119/105 65/118/106
s 5
f 60/22/107 61/16/108 67/19/109 66/23/110
s 6
f 61/16/111 62/17/112 68/18/113 67/19/114
s 7
f 62/112/115 63/113/116 69/114/117 68/115/118
s 8
f 64/30/119 59/31/120 65/27/121 70/26/122
s 4
f 65/118/106 66/119/105 72/91/123 71/90/124
s 5
f 66/23/110 67/19/109 73/21/125 72/25/126
s 6
f 67/19/114 68/18/113 74/20/127 73/21/128
s 7
f 68/115/118 69/114/117 75/116/129 74/117/130
s off
f 69/32/131 70/26/132 76/29/133 75/33/134
s 8
f 70/26/122 65/27/121 71/28/135 76/29/136
s 9
f 71/90/137 72/91/138 77/88/139
f 72/25/138 73/21/140 77/24/139
f 73/21/140 74/20/141 77/24/139
f 74/86/141 75/87/142 77/88/139
f 75/87/142 76/89/143 77/88/139
f 76/89/143 71/90/137 77/88/139
s off
f 78/122/144 79/123/145 84/124/146 83/96/147
f 79/34/148 80/35/149 85/36/150 84/37/151
f 80/126/152 81/127/153 86/128/154 85/129/155
f 81/127/156 82/130/157 87/131/158 86/128/159
f 82/125/160 78/122/161 83/96/162 87/97/163
s 10
f 83/96/164 84/92/165 88/94/166
f 84/92/165 85/93/167 88/94/166
f 85/93/167 86/95/168 88/94/166
f 86/95/168 87/97/169 88/94/166
f 87/97/169 83/96/164 88/94/166
