# This file uses centimeters as units for non-parametric coordinates.

mtllib Trash5.mtl
g default
v -0.178397 0.000000 0.108461
v -0.048099 0.000000 0.168453
v -0.178397 0.098954 0.065014
v -0.048099 0.128227 0.085806
v -0.178397 0.098954 -0.062520
v -0.048099 0.128227 -0.019073
v -0.178397 0.000000 -0.019073
v -0.048099 0.000000 -0.089122
v -0.041499 0.000000 0.032033
v -0.041499 0.000000 0.128967
v 0.076172 0.000000 -0.076343
v -0.032999 0.000000 -0.045809
v -0.047732 0.000000 0.196884
v 0.076172 0.000000 0.207341
v 0.153527 0.000000 0.080500
v 0.103426 0.063845 -0.076343
v -0.041327 0.063845 -0.036136
v -0.047732 0.063845 0.212270
v 0.076172 0.063845 0.211851
v 0.217379 0.063845 0.080500
v 0.103426 0.204966 -0.076343
v -0.108208 0.204966 -0.016434
v -0.108208 0.127691 0.192820
v 0.096682 0.155410 0.252729
v 0.237890 0.155410 0.080500
v 0.050691 0.204966 0.002079
v -0.041499 0.204966 0.032033
v -0.041499 0.127691 0.128967
v 0.071202 0.193177 0.158922
v 0.128178 0.193177 0.080500
v 0.025210 0.165458 0.080500
v 0.134618 0.021343 -0.172413
v 0.013736 -0.019271 -0.138475
v -0.062497 0.000000 -0.047387
v 0.039026 0.020693 -0.042316
v 0.093615 0.000000 0.055598
v 0.188677 0.000000 0.033901
v 0.230983 0.000000 -0.053950
v 0.161371 0.198921 -0.210902
v 0.013736 0.178315 -0.138475
v -0.062497 0.244412 -0.047387
v 0.017381 0.220208 -0.005196
v 0.093615 0.173487 0.055598
v 0.188677 0.146286 0.016800
v 0.230983 0.170384 -0.053950
v 0.118618 0.274741 -0.053950
v 0.341123 0.000000 -0.096545
v 0.294770 0.000000 -0.187518
v 0.222573 0.000000 -0.259715
v 0.131600 0.000000 -0.293734
v 0.030755 0.000000 -0.322041
v -0.070090 0.000000 -0.306069
v -0.161063 0.000000 -0.259715
v -0.233260 0.000000 -0.187518
v -0.279613 0.000000 -0.096545
v -0.295585 0.000000 0.004300
v -0.279613 0.000000 0.105144
v -0.233260 0.000000 0.196118
v -0.161063 0.000000 0.268314
v -0.070090 0.000000 0.314668
v 0.030755 0.000000 0.330640
v 0.131600 0.000000 0.314668
v 0.222573 0.000000 0.268314
v 0.294770 0.000000 0.196118
v 0.341123 0.000000 0.105144
v 0.357095 0.000000 0.004300
v 0.270307 0.029399 -0.096545
v 0.244666 0.044205 -0.161599
v 0.172469 0.044205 -0.233796
v 0.131600 0.029399 -0.293734
v 0.030755 0.043104 -0.258551
v -0.070090 0.029399 -0.242579
v -0.161063 0.029399 -0.229593
v -0.211725 0.029399 -0.157397
v -0.258078 0.047287 -0.096545
v -0.215433 0.029399 0.004300
v -0.237620 0.029399 0.059531
v -0.191266 0.029399 0.150504
v -0.155262 0.029399 0.211052
v -0.070090 0.029399 0.258194
v 0.030755 0.029399 0.276939
v 0.131600 0.029399 0.284007
v 0.191235 0.029399 0.238931
v 0.263432 0.029399 0.166734
v 0.273090 0.029399 0.105144
v 0.270596 0.029399 0.004300
v 0.012841 0.075798 0.048833
v -0.023026 0.000000 -0.213306
v -0.155615 0.000000 -0.202756
v -0.155615 0.000000 -0.071812
v -0.052994 0.000000 -0.028731
v 0.011895 0.000000 -0.106253
v -0.023026 0.156090 -0.152907
v -0.111239 0.156090 -0.109826
v -0.111239 0.156090 -0.071812
v -0.052994 0.156090 -0.028731
v 0.011895 0.156090 -0.106253
v -0.023026 0.312180 -0.156128
v -0.111239 0.312180 -0.113047
v -0.111239 0.312180 -0.036547
v -0.000490 0.329887 0.019627
v 0.064398 0.353075 -0.093160
v -0.037137 0.353075 -0.093160
vt 0.688218 0.628350
vt 0.688218 0.532121
vt 0.762883 0.564904
vt 0.762883 0.661133
vt 0.177593 0.904340
vt 0.177593 0.721219
vt 0.225766 0.709609
vt 0.225766 0.897041
vt 0.273940 0.724285
vt 0.332247 0.882175
vt 0.197955 0.498315
vt 0.264241 0.498315
vt 0.264241 0.626876
vt 0.210858 0.608693
vt 0.353627 0.514419
vt 0.382668 0.648408
vt 0.264241 0.705618
vt 0.388803 0.498315
vt 0.487606 0.498315
vt 0.487606 0.616091
vt 0.458922 0.616091
vt 0.514214 0.733867
vt 0.456492 0.733867
vt 0.596100 0.001851
vt 0.676875 0.001851
vt 0.631302 0.119627
vt 0.596100 0.119627
vt 0.633733 0.237403
vt 0.586221 0.268260
vt 0.537607 0.119627
vt 0.501119 0.250763
vt 0.824645 0.547810
vt 0.922960 0.532121
vt 0.922960 0.611256
vt 0.824645 0.644039
vt 0.535056 0.636181
vt 0.535056 0.563040
vt 0.530353 0.511794
vt 0.541470 0.694916
vt 0.998008 0.368444
vt 0.952805 0.528130
vt 0.916235 0.477795
vt 0.938836 0.408235
vt 0.794914 0.528130
vt 0.843094 0.477795
vt 0.879664 0.427461
vt 0.879664 0.266986
vt 0.879664 0.349768
vt 0.749711 0.373533
vt 0.820492 0.392759
vt 0.171216 0.699400
vt 0.059821 0.644751
vt 0.138958 0.580973
vt 0.002299 0.576021
vt 0.062570 0.544187
vt 0.120092 0.498315
vt 0.191820 0.527589
vt 0.482413 0.324178
vt 0.447437 0.392821
vt 0.409632 0.373264
vt 0.428979 0.324178
vt 0.392962 0.447297
vt 0.355157 0.427740
vt 0.234712 0.214485
vt 0.494464 0.248087
vt 0.429197 0.248087
vt 0.324319 0.472965
vt 0.324319 0.472965
vt 0.482413 0.171996
vt 0.431079 0.171996
vt 0.248228 0.494323
vt 0.248228 0.446418
vt 0.447437 0.103353
vt 0.423792 0.125524
vt 0.172137 0.482272
vt 0.172137 0.434366
vt 0.392962 0.048878
vt 0.369317 0.071049
vt 0.103494 0.447297
vt 0.103494 0.424568
vt 0.324319 0.013903
vt 0.324319 0.037038
vt 0.049019 0.392821
vt 0.065268 0.370093
vt 0.248228 0.001851
vt 0.248228 0.042370
vt 0.014044 0.324178
vt 0.030293 0.324178
vt 0.172137 0.013903
vt 0.172137 0.056514
vt 0.001992 0.248087
vt 0.062470 0.248087
vt 0.103494 0.048878
vt 0.107871 0.092085
vt 0.014044 0.171996
vt 0.045729 0.206413
vt 0.049019 0.103353
vt 0.080705 0.137770
vt 0.547894 0.625262
vt 0.547894 0.567540
vt 0.603806 0.610257
vt 0.631458 0.525155
vt 0.614454 0.657768
vt 0.680418 0.610257
vt 0.901256 0.746345
vt 0.901256 0.648030
vt 0.998008 0.648030
vt 0.975921 0.746345
vt 0.820456 0.752772
vt 0.798368 0.654457
vt 0.895121 0.654457
vt 0.895121 0.752772
vt 0.838975 0.123873
vt 0.838975 0.206247
vt 0.790801 0.212530
vt 0.790801 0.103309
vt 0.684320 0.262995
vt 0.684320 0.103309
vt 0.790801 0.017327
vt 0.721712 0.001851
vt 0.846083 0.217363
vt 0.846083 0.123873
vt 0.894257 0.123873
vt 0.894257 0.217363
vt 0.846083 0.065506
vt 0.894257 0.017327
vt 0.963346 0.108397
vt 0.942431 0.262995
vt 0.963346 0.001851
vt 0.150723 0.871705
vt 0.059513 0.902350
vt 0.059513 0.753264
vt 0.170909 0.737716
vt 0.001992 0.887809
vt 0.001992 0.703391
vt 0.339356 0.927379
vt 0.354969 0.850776
vt 0.505511 0.867107
vt 0.523774 0.927379
vt 0.339356 0.809586
vt 0.470258 0.809586
vt 0.339356 0.737858
vt 0.449734 0.737858
vt 0.620393 0.507803
vt 0.520350 0.507803
vt 0.553833 0.390027
vt 0.620393 0.390027
vt 0.553833 0.272251
vt 0.620393 0.272251
vt 0.626529 0.272251
vt 0.703960 0.272251
vt 0.703960 0.390027
vt 0.660012 0.390027
vt 0.743576 0.521163
vt 0.660012 0.507803
vt 0.770074 0.650465
vt 0.770074 0.532121
vt 0.818248 0.532121
vt 0.818248 0.650465
vn -0.309567 0.461459 0.831399
vn -0.309567 0.461459 0.831399
vn -0.309567 0.461459 0.831399
vn -0.309567 0.461459 0.831399
vn -0.219195 0.975681 0.000000
vn -0.219195 0.975681 0.000000
vn -0.219195 0.975681 0.000000
vn -0.219195 0.975681 0.000000
vn -0.113711 0.115548 -0.986772
vn -0.113711 0.115548 -0.986772
vn -0.113711 0.115548 -0.986772
vn -0.113711 0.115548 -0.986772
vn -1.000000 -0.000000 0.000000
vn -1.000000 -0.000000 0.000000
vn -1.000000 -0.000000 0.000000
vn -1.000000 -0.000000 0.000000
vn 0.000000 1.000000 0.000000
vn 0.000000 1.000000 0.000000
vn 0.000000 1.000000 0.000000
vn 0.000000 1.000000 0.000000
vn -0.266679 0.112049 -0.957250
vn -0.266679 0.112049 -0.957250
vn -0.269998 0.023126 -0.962583
vn -0.269962 0.024514 -0.962559
vn -0.997472 -0.056628 -0.042934
vn -0.997472 -0.056628 -0.042934
vn -0.925722 -0.369122 -0.082383
vn -0.934940 -0.345768 -0.079571
vn -0.039993 -0.153838 0.987287
vn -0.039993 -0.153838 0.987287
vn -0.119318 -0.168174 0.978509
vn -0.126227 -0.169377 0.977434
vn 0.707561 -0.374975 0.598958
vn 0.707561 -0.374975 0.598958
vn 0.701102 -0.320561 0.636943
vn 0.702019 -0.327003 0.632644
vn 0.729128 -0.520227 -0.444675
vn 0.729128 -0.520227 -0.444675
vn 0.780427 -0.257443 -0.569787
vn 0.782554 -0.200824 -0.589304
vn -0.270448 0.003115 -0.962729
vn -0.270448 0.003115 -0.962729
vn -0.845142 -0.525014 -0.100476
vn -0.845142 -0.525014 -0.100476
vn -0.160956 -0.175310 0.971267
vn -0.160956 -0.175310 0.971267
vn 0.698133 -0.301353 0.649459
vn 0.698133 -0.301353 0.649459
vn 0.776813 -0.068474 -0.625997
vn 0.776813 -0.068474 -0.625997
vn 0.176786 0.983924 0.025308
vn 0.029700 0.965811 0.257541
vn 0.036389 0.957764 0.285242
vn 0.095816 0.992196 0.079787
vn -0.174818 0.946319 0.271880
vn -0.164818 0.940846 0.296048
vn -0.011491 0.977830 0.209086
vn -0.010539 0.984088 0.177367
vn 0.290008 0.944308 0.155492
vn 0.230570 0.962803 0.140883
vn -0.205694 0.937023 0.282273
vn -0.353431 -0.070496 -0.932801
vn -0.353431 -0.070496 -0.932801
vn -0.353431 -0.070496 -0.932801
vn -0.353431 -0.070496 -0.932801
vn -0.766866 0.000000 -0.641807
vn -0.766866 0.000000 -0.641807
vn -0.766866 0.000000 -0.641807
vn -0.766866 0.000000 -0.641807
vn -0.252713 -0.092850 0.963076
vn -0.252713 -0.092850 0.963076
vn -0.252713 -0.092850 0.963076
vn -0.252713 -0.092850 0.963076
vn -0.788924 -0.106014 0.605277
vn -0.788924 -0.106014 0.605277
vn -0.788924 -0.106014 0.605277
vn -0.788924 -0.106014 0.605277
vn 0.309407 0.050780 0.949573
vn 0.309407 0.050780 0.949573
vn 0.309407 0.050780 0.949573
vn 0.309407 0.050780 0.949573
vn 0.880385 0.025573 0.473569
vn 0.880385 0.025573 0.473569
vn 0.880385 0.025573 0.473569
vn 0.880385 0.025573 0.473569
vn 0.839976 -0.123039 -0.528490
vn 0.839976 -0.123039 -0.528490
vn 0.839976 -0.123039 -0.528490
vn 0.839976 -0.123039 -0.528490
vn 0.151047 0.905598 -0.396330
vn -0.251477 0.778095 -0.575611
vn 0.184622 0.979005 -0.086390
vn -0.164732 0.893178 -0.418445
vn -0.092225 0.753336 0.651137
vn 0.253920 0.680714 0.687134
vn 0.503802 0.611055 0.610570
vn 0.675421 0.727247 0.122139
vn 0.397123 0.915383 -0.066087
vn 0.476408 0.826081 -0.301040
vn 0.472639 0.818466 -0.326688
vn 0.419340 0.903907 -0.084300
vn 0.452259 0.729859 -0.512609
vn 0.452883 0.698651 -0.553881
vn 0.206816 0.627034 -0.751036
vn 0.211379 0.625960 -0.750662
vn -0.078651 0.796491 -0.599514
vn -0.086352 0.805801 -0.585857
vn -0.147206 0.852418 -0.501712
vn -0.151548 0.849209 -0.505843
vn -0.287589 0.805575 -0.518017
vn -0.381787 0.772630 -0.507230
vn -0.607538 0.636083 -0.475706
vn -0.629286 0.613784 -0.476727
vn -0.656759 0.750483 -0.073773
vn -0.662104 0.742376 -0.102456
vn -0.529850 0.844748 0.075230
vn -0.531315 0.843685 0.076804
vn -0.414944 0.898778 0.141494
vn -0.427483 0.901474 0.067836
vn -0.395314 0.881014 0.259888
vn -0.397520 0.884745 0.243319
vn -0.280315 0.871698 0.401953
vn -0.330345 0.871325 0.362856
vn -0.139888 0.877773 0.458199
vn -0.167972 0.875901 0.452309
vn -0.033086 0.855322 0.517040
vn -0.036672 0.857277 0.513547
vn 0.139973 0.806281 0.574734
vn 0.181106 0.798599 0.573969
vn 0.378979 0.801920 0.461843
vn 0.374508 0.796638 0.474460
vn 0.431064 0.850769 0.300626
vn 0.437465 0.855186 0.277997
vn 0.387170 0.919729 0.064798
vn 0.398943 0.913444 0.080398
vn 0.352842 0.935680 -0.002435
vn 0.352818 0.935688 -0.002652
vn 0.214389 0.974328 0.068718
vn 0.132428 0.991188 -0.002918
vn -0.004029 0.999536 0.030179
vn -0.019980 0.992304 -0.122205
vn 0.013311 0.991467 -0.129674
vn -0.004452 0.994354 -0.106020
vn -0.084731 0.987472 -0.133113
vn -0.072486 0.990157 -0.119731
vn -0.055439 0.985344 -0.161320
vn -0.055364 0.994236 -0.091813
vn -0.225599 0.961945 0.154162
vn -0.180844 0.983061 0.029764
vn -0.175368 0.979896 0.095130
vn -0.130673 0.980749 0.145106
vn -0.068108 0.979404 0.190078
vn -0.024191 0.979274 0.201092
vn 0.049816 0.984348 0.169051
vn 0.116714 0.984519 0.130771
vn 0.142298 0.986113 0.085629
vn 0.173592 0.984775 0.009148
vn 0.176786 0.984247 -0.002251
vn -0.210191 0.454910 -0.865377
vn -0.210191 0.454910 -0.865377
vn -0.320568 0.258273 -0.911335
vn -0.315327 0.268677 -0.910155
vn -0.961883 0.273461 -0.000000
vn -0.961883 0.273461 -0.000000
vn -0.987396 0.158270 -0.000000
vn -0.982864 0.184334 -0.000000
vn -0.471090 0.066965 0.879540
vn -0.471090 0.066965 0.879540
vn -0.484967 -0.053722 0.872881
vn -0.482899 -0.031013 0.875127
vn 0.907522 0.079780 -0.412357
vn 0.907522 0.079780 -0.412357
vn 0.817604 0.003504 -0.575771
vn 0.800979 -0.008139 -0.598637
vn -0.438760 -0.018538 -0.898413
vn -0.438760 -0.018538 -0.898413
vn -1.000000 -0.000000 0.000000
vn -1.000000 -0.000000 0.000000
vn -0.490510 -0.139964 0.860122
vn -0.490510 -0.139964 0.860122
vn 0.802300 -0.311595 0.509140
vn 0.802300 -0.311595 0.509140
vn 0.802300 -0.311595 0.509140
vn 0.802300 -0.311595 0.509140
vn 0.679979 -0.080737 -0.728773
vn 0.679979 -0.080737 -0.728773
vn -0.125020 0.819042 -0.559946
vn -0.423270 0.877194 -0.226658
vn -0.183513 0.980117 -0.075456
vn -0.359124 0.913748 0.189987
vn -0.147246 0.958311 0.244864
vn 0.000000 0.999625 -0.027401
s off
g pCube2
usemtl initialShadingGroup
f 1/105/1 2/106/2 4/107/3 3/108/4
f 3/32/5 4/33/6 6/34/7 5/35/8
f 5/109/9 6/110/10 8/111/11 7/112/12
f 7/1/13 1/2/14 3/3/15 5/4/16
f 9/36/17 10/37/18 13/38/19 12/39/20
s 1
f 11/113/21 12/114/22 17/115/23 16/116/24
s 2
f 12/5/25 13/6/26 18/7/27 17/8/28
s 3
f 13/121/29 14/122/30 19/123/31 18/124/32
s 4
f 14/122/33 15/125/34 20/126/35 19/123/36
s 5
f 15/156/37 11/157/38 16/158/39 20/159/40
s 1
f 16/116/24 17/115/23 22/117/41 21/118/42
s 2
f 17/8/28 18/7/27 23/9/43 22/10/44
s 3
f 18/124/32 19/123/31 24/127/45 23/128/46
s 4
f 19/123/36 20/126/35 25/129/47 24/127/48
s 5
f 20/119/40 16/116/39 21/118/49 25/120/50
s 6
f 21/40/51 22/41/52 27/42/53 26/43/54
f 22/41/52 23/44/55 28/45/56 27/42/53
f 23/44/55 24/49/57 29/50/58 28/45/56
f 24/49/57 25/47/59 30/48/60 29/50/58
f 25/47/59 21/40/51 26/43/54 30/48/60
f 26/43/54 27/42/53 31/46/61
f 27/42/53 28/45/56 31/46/61
f 28/45/56 29/50/58 31/46/61
f 29/50/58 30/48/60 31/46/61
f 30/48/60 26/43/54 31/46/61
s off
f 32/130/62 33/131/63 40/132/64 39/133/65
f 33/131/66 34/134/67 41/135/68 40/132/69
f 34/136/70 35/137/71 42/138/72 41/139/73
f 35/137/74 36/140/75 43/141/76 42/138/77
f 36/140/78 37/142/79 44/143/80 43/141/81
f 37/11/82 38/12/83 45/13/84 44/14/85
f 38/12/86 32/15/87 39/16/88 45/13/89
s 7
f 39/51/90 40/52/91 46/53/92
f 40/52/91 41/54/93 46/53/92
f 41/54/93 42/55/94 46/53/92
f 42/55/94 43/56/95 46/53/92
f 43/56/95 44/57/96 46/53/92
f 44/14/96 45/13/97 46/17/92
f 45/13/97 39/16/90 46/17/92
s 8
f 47/58/98 48/59/99 68/60/100 67/61/101
f 48/59/99 49/62/102 69/63/103 68/60/100
f 49/62/102 50/67/104 70/68/105 69/63/103
f 50/67/104 51/71/106 71/72/107 70/68/105
f 51/71/106 52/75/108 72/76/109 71/72/107
f 52/75/108 53/79/110 73/80/111 72/76/109
f 53/79/110 54/83/112 74/84/113 73/80/111
f 54/83/112 55/87/114 75/88/115 74/84/113
f 55/87/114 56/91/116 76/92/117 75/88/115
f 56/91/116 57/95/118 77/96/119 76/92/117
f 57/95/118 58/97/120 78/98/121 77/96/119
f 58/97/120 59/93/122 79/94/123 78/98/121
f 59/93/122 60/89/124 80/90/125 79/94/123
f 60/89/124 61/85/126 81/86/127 80/90/125
f 61/85/126 62/81/128 82/82/129 81/86/127
f 62/81/128 63/77/130 83/78/131 82/82/129
f 63/77/130 64/73/132 84/74/133 83/78/131
f 64/73/132 65/69/134 85/70/135 84/74/133
f 65/69/134 66/65/136 86/66/137 85/70/135
f 66/65/136 47/58/98 67/61/101 86/66/137
s 9
f 67/61/138 68/60/139 87/64/140
f 68/60/139 69/63/141 87/64/140
f 69/63/141 70/68/142 87/64/140
f 70/68/142 71/72/143 87/64/140
f 71/72/143 72/76/144 87/64/140
f 72/76/144 73/80/145 87/64/140
f 73/80/145 74/84/146 87/64/140
f 74/84/146 75/88/147 87/64/140
f 75/88/147 76/92/148 87/64/140
f 76/92/148 77/96/149 87/64/140
f 77/96/149 78/98/150 87/64/140
f 78/98/150 79/94/151 87/64/140
f 79/94/151 80/90/152 87/64/140
f 80/90/152 81/86/153 87/64/140
f 81/86/153 82/82/154 87/64/140
f 82/82/154 83/78/155 87/64/140
f 83/78/155 84/74/156 87/64/140
f 84/74/156 85/70/157 87/64/140
f 85/70/157 86/66/158 87/64/140
f 86/66/158 67/61/138 87/64/140
s 10
f 88/144/159 89/145/160 94/146/161 93/147/162
s 11
f 89/18/163 90/19/164 95/20/165 94/21/166
s 12
f 90/150/167 91/151/168 96/152/169 95/153/170
s 13
f 92/24/171 88/25/172 93/26/173 97/27/174
s 10
f 93/147/162 94/146/161 99/148/175 98/149/176
s 11
f 94/21/166 95/20/165 100/22/177 99/23/178
s 12
f 95/153/170 96/152/169 101/154/179 100/155/180
s off
f 96/30/181 97/27/182 102/29/183 101/31/184
s 13
f 97/27/174 93/26/173 98/28/185 102/29/186
s 14
f 98/103/187 99/99/188 103/101/189
f 99/99/188 100/100/190 103/101/189
f 100/100/190 101/102/191 103/101/189
f 101/102/191 102/104/192 103/101/189
f 102/104/192 98/103/187 103/101/189
