# This file uses centimeters as units for non-parametric coordinates.

mtllib Trash2.mtl
g default
v -0.007731 0.028964 -0.265228
v -0.169697 0.023182 -0.218920
v -0.203234 0.037778 -0.115240
v -0.158054 0.037778 0.014944
v -0.007731 0.037778 0.014944
v 0.067430 0.037778 -0.115240
v -0.045312 0.171079 -0.153828
v -0.123022 0.171079 -0.153828
v -0.169429 0.171079 -0.115240
v -0.120473 0.122068 -0.035025
v -0.045312 0.171079 -0.011936
v -0.007731 0.198420 -0.115240
v -0.082893 0.232084 -0.059719
v 0.333141 0.000000 -0.121431
v 0.279133 0.000000 -0.227428
v 0.195014 0.000000 -0.291555
v 0.074954 0.000000 -0.359225
v -0.042544 0.000000 -0.346683
v -0.160041 0.000000 -0.328074
v -0.266038 0.000000 -0.285009
v -0.350157 0.000000 -0.200890
v -0.404165 0.000000 -0.094894
v -0.422775 0.000000 0.022604
v -0.404165 0.000000 0.140102
v -0.350157 0.000000 0.246098
v -0.266038 0.000000 0.330218
v -0.160041 0.000000 0.384225
v -0.042544 0.000000 0.402835
v 0.074954 0.000000 0.384225
v 0.180951 0.000000 0.330218
v 0.265070 0.000000 0.246098
v 0.319077 0.000000 0.140102
v 0.337687 0.000000 0.022604
v 0.319078 0.014274 -0.094894
v 0.265070 0.027385 -0.200890
v 0.180951 0.034566 -0.265018
v 0.074954 0.021454 -0.319026
v -0.042544 0.021454 -0.306484
v -0.160041 0.021454 -0.287874
v -0.218919 0.021454 -0.239390
v -0.303039 0.042929 -0.155271
v -0.333327 0.021454 -0.024089
v -0.369270 0.021454 0.023083
v -0.325505 0.021454 0.085471
v -0.301283 0.034129 0.216173
v -0.217164 0.034129 0.300293
v -0.160041 0.041706 0.366795
v -0.042544 0.043528 0.321040
v 0.074954 0.043528 0.310339
v 0.180951 0.021454 0.320696
v 0.238496 0.004851 0.196186
v 0.292504 0.004851 0.090189
v 0.337687 0.021454 0.022604
v -0.042544 0.108111 0.022604
v 0.129039 0.013639 -0.192544
v -0.023248 0.013639 -0.192425
v -0.075919 0.013639 -0.079357
v 0.142804 0.013639 0.079645
v 0.207254 0.013639 -0.079357
v 0.129039 0.131618 -0.192544
v -0.023248 0.145775 -0.226044
v -0.115048 0.145775 -0.079357
v -0.040796 0.145775 0.079645
v 0.142804 0.145775 0.079645
v 0.255845 0.192580 -0.079357
v 0.051004 0.194633 -0.079357
v -0.111075 0.013639 -0.077945
v -0.217707 0.013639 -0.117903
v -0.319758 0.013639 -0.029523
v -0.286688 0.013639 0.119346
v -0.201176 0.013639 0.183565
v -0.092604 0.013639 0.139328
v -0.111075 0.089067 -0.077945
v -0.217707 0.089067 -0.117903
v -0.319758 0.089067 -0.029523
v -0.286688 0.089067 0.119346
v -0.201176 0.089067 0.220794
v -0.092604 0.089067 0.176557
v -0.080157 0.089067 0.040785
v -0.127613 0.225638 -0.057758
v -0.197792 0.216458 -0.077495
v -0.283304 0.124289 0.007713
v -0.319758 0.124289 0.095472
v -0.234245 0.164495 0.200895
v -0.127613 0.199319 0.176557
v -0.080157 0.218285 0.040785
v -0.206199 0.185972 0.040785
v 0.081935 0.013638 -0.114690
v -0.109795 0.013638 -0.061427
v -0.109795 0.013638 0.228748
v 0.103475 0.013638 0.282011
v 0.204787 0.013638 0.122016
v 0.081935 0.125560 -0.114690
v -0.109795 0.125560 -0.061427
v -0.109795 0.125560 0.161017
v 0.064296 0.125560 0.214280
v 0.165608 0.125560 0.122016
v 0.081935 0.209259 -0.017428
v -0.081991 0.315999 0.035835
v -0.081991 0.287487 0.165846
v 0.081935 0.237482 0.219109
v 0.183247 0.237482 0.122016
v 0.036627 0.326343 0.122016
vt 0.427058 0.934646
vt 0.437456 0.860794
vt 0.532407 0.860794
vt 0.532407 0.888281
vt 0.437456 0.768064
vt 0.497496 0.803657
vt 0.575860 0.821247
vt 0.281299 0.748267
vt 0.281299 0.655536
vt 0.395724 0.655536
vt 0.376250 0.729120
vt 0.275020 0.548699
vt 0.376250 0.628050
vt 0.419703 0.695084
vt 0.399773 0.930357
vt 0.399773 0.827760
vt 0.409940 0.846663
vt 0.415055 0.930357
vt 0.399773 0.752258
vt 0.419280 0.771161
vt 0.696603 0.761126
vt 0.696603 0.680587
vt 0.790724 0.680587
vt 0.790724 0.785073
vt 0.160052 0.946141
vt 0.160052 0.832883
vt 0.287513 0.832883
vt 0.254173 0.946141
vt 0.160052 0.752258
vt 0.244089 0.752258
vt 0.853538 0.448372
vt 0.853538 0.342332
vt 0.907266 0.342332
vt 0.907266 0.448372
vt 0.853538 0.296588
vt 0.907266 0.270069
vt 0.932355 0.359337
vt 0.932355 0.421848
vt 0.853538 0.511325
vt 0.907266 0.511325
vt 0.960994 0.284243
vt 0.976292 0.398291
vt 0.998008 0.482542
vt 0.294530 0.933541
vt 0.294530 0.836830
vt 0.386573 0.836830
vt 0.373063 0.933541
vt 0.294530 0.752258
vt 0.391811 0.766637
vt 0.425839 0.548699
vt 0.632532 0.548699
vt 0.584287 0.628422
vt 0.425839 0.628422
vt 0.587726 0.743763
vt 0.495119 0.764072
vt 0.549843 0.170495
vt 0.549843 0.001889
vt 0.629565 0.001889
vt 0.629565 0.170495
vt 0.689184 0.071169
vt 0.709288 0.170495
vt 0.549843 0.284461
vt 0.629565 0.236215
vt 0.709288 0.239655
vt 0.700027 0.597244
vt 0.666971 0.569758
vt 0.728611 0.530210
vt 0.755380 0.597244
vt 0.782149 0.676595
vt 0.666780 0.643610
vt 0.782149 0.569758
vt 0.356527 0.544708
vt 0.272833 0.535775
vt 0.272833 0.507140
vt 0.356527 0.516074
vt 0.189138 0.522519
vt 0.189138 0.493884
vt 0.272833 0.272729
vt 0.442046 0.496506
vt 0.432029 0.477604
vt 0.113636 0.491843
vt 0.147199 0.459349
vt 0.501964 0.450828
vt 0.491947 0.431925
vt 0.053718 0.431925
vt 0.087281 0.399431
vt 0.015248 0.356423
vt 0.065706 0.305989
vt 0.530417 0.356423
vt 0.001992 0.272729
vt 0.040104 0.272388
vt 0.543673 0.272729
vt 0.015248 0.189035
vt 0.071277 0.227949
vt 0.511489 0.224588
vt 0.053718 0.113533
vt 0.088531 0.134849
vt 0.530417 0.189035
vt 0.543673 0.272729
vt 0.473019 0.149086
vt 0.113636 0.053614
vt 0.148450 0.074930
vt 0.491947 0.113533
vt 0.432028 0.060397
vt 0.189138 0.015144
vt 0.189138 0.027560
vt 0.432028 0.053614
vt 0.356527 0.067774
vt 0.272833 0.001889
vt 0.272833 0.060152
vt 0.356527 0.015144
vt 0.909386 0.092213
vt 0.933248 0.200688
vt 0.828761 0.147798
vt 0.828761 0.266078
vt 0.828761 0.001889
vt 0.715503 0.213187
vt 0.715503 0.082408
vt 0.235082 0.732939
vt 0.185093 0.746998
vt 0.179105 0.662747
vt 0.268885 0.662747
vt 0.235082 0.566035
vt 0.159127 0.548699
vt 0.098216 0.623793
vt 0.658472 0.418999
vt 0.658472 0.326392
vt 0.742965 0.357612
vt 0.775238 0.288452
vt 0.775238 0.456939
vt 0.847403 0.357612
vt 0.775238 0.526219
vt 0.638667 0.488279
vt 0.789564 0.530210
vt 0.896639 0.530210
vt 0.869870 0.625161
vt 0.816333 0.590250
vt 0.843102 0.668615
vt 0.890981 0.672606
vt 0.890981 0.781082
vt 0.796860 0.781082
vt 0.806944 0.672606
vt 0.658929 0.919073
vt 0.582975 0.919073
vt 0.582975 0.865345
vt 0.658929 0.865345
vt 0.597160 0.774603
vt 0.647149 0.768064
vt 0.920672 0.672606
vt 0.998008 0.672606
vt 0.998008 0.726334
vt 0.920672 0.726334
vt 0.973071 0.804868
vt 0.897116 0.780062
vt 0.001992 0.750990
vt 0.153905 0.750990
vt 0.125998 0.830712
vt 0.001992 0.830712
vt 0.138562 0.910435
vt 0.021797 0.946053
vn 0.242926 0.557355 -0.793941
vn -0.408352 0.489283 -0.770617
vn -0.380880 0.555161 -0.739410
vn 0.303038 0.590986 -0.747599
vn -0.914837 0.403366 -0.019241
vn -0.879526 0.475346 -0.021920
vn -0.540835 0.381894 0.749436
vn -0.545767 0.379378 0.747135
vn 0.560670 0.408041 0.720522
vn 0.526591 0.445444 0.724073
vn 0.885095 0.464537 -0.028505
vn 0.843334 0.536788 -0.025425
vn 0.000000 0.839121 -0.543945
vn -0.337838 0.848997 -0.406289
vn -0.672885 0.373218 0.638698
vn -0.473291 0.343730 0.811077
vn 0.604834 0.687453 0.401975
vn -0.036519 0.831842 -0.553810
vn 0.669484 0.703506 -0.238473
vn 0.519992 0.720206 -0.459251
vn 0.545151 0.730488 -0.411337
vn 0.803846 0.571056 -0.166512
vn 0.353318 0.735713 -0.577835
vn 0.360969 0.732694 -0.576941
vn 0.091667 0.843698 -0.528933
vn 0.130292 0.829716 -0.542767
vn -0.061386 0.880558 -0.469945
vn -0.063174 0.880460 -0.469893
vn -0.123446 0.897591 -0.423193
vn -0.145593 0.904251 -0.401413
vn -0.236546 0.901132 -0.363328
vn -0.232064 0.902819 -0.362027
vn -0.345340 0.912165 -0.220670
vn -0.362851 0.912415 -0.189307
vn -0.390509 0.917563 -0.074699
vn -0.353300 0.932034 -0.080567
vn -0.275857 0.961182 0.005718
vn -0.275853 0.961182 0.005845
vn -0.331818 0.940170 0.077319
vn -0.317468 0.944761 0.081495
vn -0.368080 0.908767 0.196621
vn -0.368268 0.907682 0.201229
vn -0.400584 0.805618 0.436477
vn -0.417257 0.775509 0.473796
vn -0.128395 0.749513 0.649419
vn -0.153543 0.746445 0.647491
vn 0.064656 0.826771 0.558810
vn 0.064056 0.834380 0.547455
vn 0.100233 0.847932 0.520543
vn 0.109509 0.842040 0.528183
vn 0.280044 0.830267 0.481905
vn 0.297228 0.841293 0.451533
vn 0.282085 0.948640 0.143213
vn 0.169809 0.981690 0.086313
vn 0.131910 0.988930 0.067947
vn 0.260152 0.955981 0.135723
vn 0.727245 0.683231 0.065649
vn 0.739102 0.671155 0.057262
vn 0.235321 0.970584 -0.050897
vn 0.216465 0.974787 -0.054153
vn 0.014522 0.999788 -0.014586
vn 0.089510 0.979422 -0.180888
vn -0.008936 0.968527 -0.248749
vn -0.033196 0.966502 -0.254504
vn -0.087087 0.967574 -0.237101
vn -0.099387 0.962734 -0.251526
vn -0.170845 0.979288 -0.108661
vn -0.283895 0.958787 -0.011438
vn -0.256272 0.966352 0.022119
vn -0.282718 0.958000 0.048026
vn -0.224871 0.971810 0.070846
vn -0.203035 0.970388 0.130857
vn -0.087795 0.983249 0.159729
vn 0.046373 0.976324 0.211282
vn 0.117475 0.978142 0.171577
vn 0.286919 0.955896 0.062768
vn 0.302941 0.950077 0.074703
vn 0.238828 0.938393 0.249760
vn 0.221935 0.973796 0.049656
vn 0.101894 -0.132523 -0.985929
vn 0.101894 -0.132523 -0.985929
vn 0.101894 -0.132523 -0.985929
vn 0.101894 -0.132523 -0.985929
vn -0.858372 -0.187826 -0.477409
vn -0.858372 -0.187826 -0.477409
vn -0.858372 -0.187826 -0.477409
vn -0.858372 -0.187826 -0.477409
vn 0.873443 -0.136435 0.467421
vn 0.873443 -0.136435 0.467421
vn 0.873443 -0.136435 0.467421
vn 0.873443 -0.136435 0.467421
vn 0.751832 -0.123038 -0.647773
vn 0.751832 -0.123038 -0.647773
vn 0.751832 -0.123038 -0.647773
vn 0.751832 -0.123038 -0.647773
vn 0.077512 0.892847 -0.443639
vn -0.085927 0.957477 -0.275418
vn -0.068767 0.997436 -0.019793
vn -0.282260 0.959304 -0.008066
vn -0.129327 0.966368 0.222279
vn 0.005137 0.956706 0.291011
vn 0.010022 0.999882 -0.011655
vn 0.350906 0.000000 -0.936411
vn 0.350906 0.000000 -0.936411
vn 0.326334 0.116329 -0.938069
vn 0.324757 0.123068 -0.937756
vn -0.654662 0.000000 -0.755922
vn -0.654662 0.000000 -0.755922
vn -0.711868 0.275400 -0.646064
vn -0.711599 0.272573 -0.647558
vn -0.976204 0.000000 0.216853
vn -0.976204 0.000000 0.216853
vn -0.984471 0.009313 0.175300
vn -0.983296 0.007852 0.181847
vn -0.685089 -0.174539 0.707241
vn -0.685089 -0.174539 0.707241
vn -0.710392 -0.179833 0.680443
vn -0.717213 -0.181253 0.672870
vn 0.343178 -0.415720 0.842262
vn 0.343178 -0.415720 0.842262
vn 0.324890 -0.139307 0.935436
vn 0.313009 -0.046996 0.948587
vn 0.303000 0.209536 -0.929670
vn 0.303000 0.209536 -0.929670
vn -0.709788 0.488409 -0.507601
vn -0.709788 0.488409 -0.507601
vn -0.998613 0.050678 -0.014281
vn -0.998613 0.050678 -0.014281
vn -0.739262 -0.185818 0.647274
vn -0.739262 -0.185818 0.647274
vn 0.268095 0.199308 0.942550
vn 0.268095 0.199308 0.942550
vn 0.964645 0.141025 0.222649
vn 0.964645 0.141025 0.222649
vn 0.964645 0.141025 0.222649
vn 0.964645 0.141025 0.222649
vn 0.938261 0.083870 -0.335607
vn 0.938261 0.083870 -0.335607
vn 0.938261 0.083870 -0.335607
vn 0.938261 0.083870 -0.335607
vn -0.221906 0.952926 0.206616
vn -0.404672 0.892061 0.201165
vn -0.409334 0.909136 0.076928
vn -0.605388 0.793047 -0.067685
vn -0.488882 0.871767 -0.031892
vn -0.375234 0.925091 0.058363
vn -0.274670 0.959361 0.064672
vn -0.246923 0.963164 0.106506
vn -1.000000 0.000000 0.000000
vn -1.000000 0.000000 0.000000
vn -0.997522 0.070132 0.005673
vn -0.997718 0.067305 0.005445
vn -0.233599 0.473166 0.849438
vn -0.233599 0.473166 0.849438
vn -0.270867 0.271812 0.923444
vn -0.273112 0.256419 0.927178
vn 0.707645 0.419703 0.568408
vn 0.707646 0.419703 0.568408
vn 0.723759 0.199363 0.660627
vn 0.723892 0.207009 0.658125
vn 0.905007 0.158400 -0.394807
vn 0.905007 0.158400 -0.394807
vn 0.899996 0.154242 -0.407698
vn 0.897020 0.151830 -0.415093
vn -0.068072 0.581936 -0.810380
vn -0.068072 0.581936 -0.810380
vn -0.068072 0.581936 -0.810380
vn -0.068072 0.581936 -0.810381
vn -0.988244 0.152385 0.012327
vn -0.988244 0.152385 0.012327
vn -0.298402 0.015861 0.954308
vn -0.298402 0.015861 0.954308
vn 0.677645 -0.122440 0.725125
vn 0.677645 -0.122440 0.725125
vn 0.884044 0.141735 -0.445395
vn 0.884045 0.141735 -0.445395
vn 0.400455 0.761666 -0.509413
vn 0.143520 0.939735 -0.310323
vn 0.283035 0.958811 -0.023921
vn -0.129325 0.889398 0.438460
vn 0.296035 0.769404 0.566022
vn 0.511578 0.844107 -0.160537
s 1
g polySurface5
usemtl initialShadingGroup
f 1/69/1 2/70/2 8/65/3 7/68/4
f 2/1/2 3/2/5 9/3/6 8/4/3
f 3/2/5 4/5/7 10/6/8 9/3/6
f 4/134/7 5/135/9 11/136/10 10/137/8
f 5/8/9 6/9/11 12/10/12 11/11/10
f 6/9/11 1/12/1 7/13/4 12/10/12
f 7/68/4 8/65/3 13/67/13
f 8/65/3 9/66/6 13/67/14
f 9/3/6 10/6/8 13/7/15
f 10/137/8 11/136/10 13/138/16
f 11/11/10 12/10/12 13/14/17
f 12/71/12 7/68/4 13/67/18
s 2
f 14/16/19 15/19/20 35/20/21 34/17/22
f 15/83/20 16/79/23 36/80/24 35/84/21
f 16/79/23 17/72/25 37/75/26 36/80/24
f 17/72/25 18/73/27 38/74/28 37/75/26
f 18/73/27 19/76/29 39/77/30 38/74/28
f 19/76/29 20/81/31 40/82/32 39/77/30
f 20/81/31 21/85/33 41/86/34 40/82/32
f 21/85/33 22/87/35 42/88/36 41/86/34
f 22/87/35 23/90/37 43/91/38 42/88/36
f 23/90/37 24/93/39 44/94/40 43/91/38
f 24/93/39 25/96/41 45/97/42 44/94/40
f 25/96/41 26/101/43 46/102/44 45/97/42
f 26/101/43 27/105/45 47/106/46 46/102/44
f 27/105/45 28/109/47 48/110/48 47/106/46
f 28/109/47 29/111/49 49/108/50 48/110/48
f 29/111/49 30/107/51 50/104/52 49/108/50
f 30/107/51 31/103/53 51/100/54 50/104/52
f 31/103/53 32/98/55 52/95/56 51/100/54
f 32/98/55 33/99/57 53/92/58 52/95/56
f 33/15/57 14/16/19 34/17/22 53/18/58
s 3
f 34/89/59 35/84/60 54/78/61
f 35/84/60 36/80/62 54/78/61
f 36/80/62 37/75/63 54/78/61
f 37/75/63 38/74/64 54/78/61
f 38/74/64 39/77/65 54/78/61
f 39/77/65 40/82/66 54/78/61
f 40/82/66 41/86/67 54/78/61
f 41/86/67 42/88/68 54/78/61
f 42/88/68 43/91/69 54/78/61
f 43/91/69 44/94/70 54/78/61
f 44/94/70 45/97/71 54/78/61
f 45/97/71 46/102/72 54/78/61
f 46/102/72 47/106/73 54/78/61
f 47/106/73 48/110/74 54/78/61
f 48/110/74 49/108/75 54/78/61
f 49/108/75 50/104/76 54/78/61
f 50/104/76 51/100/77 54/78/61
f 51/100/77 52/95/78 54/78/61
f 52/95/78 53/92/79 54/78/61
f 53/92/79 34/89/59 54/78/61
s off
f 55/139/80 56/140/81 61/141/82 60/142/83
f 56/21/84 57/22/85 62/23/86 61/24/87
f 58/25/88 59/26/89 65/27/90 64/28/91
f 59/26/92 55/29/93 60/30/94 65/27/95
s 4
f 60/112/96 61/113/97 66/114/98
f 61/113/97 62/115/99 66/114/98
f 62/115/99 63/117/100 66/114/98
f 63/117/100 64/118/101 66/114/98
f 64/118/101 65/116/102 66/114/98
f 65/116/102 60/112/96 66/114/98
s 5
f 67/143/103 68/144/104 74/145/105 73/146/106
s 6
f 68/39/107 69/31/108 75/34/109 74/40/110
s 7
f 69/31/111 70/32/112 76/33/113 75/34/114
s 8
f 70/32/115 71/35/116 77/36/117 76/33/118
s 9
f 71/149/119 72/150/120 78/151/121 77/152/122
s 5
f 73/146/106 74/145/105 81/147/123 80/148/124
s 6
f 74/40/110 75/34/109 82/38/125 81/43/126
s 7
f 75/34/114 76/33/113 83/37/127 82/38/128
s 8
f 76/33/118 77/36/117 84/41/129 83/37/130
s 9
f 77/152/122 78/151/121 85/153/131 84/154/132
s off
f 78/44/133 79/45/134 86/46/135 85/47/136
f 79/45/137 73/48/138 80/49/139 86/46/140
s 10
f 80/119/141 81/120/142 87/121/143
f 81/43/142 82/38/144 87/42/143
f 82/38/144 83/37/145 87/42/143
f 83/125/145 84/124/146 87/121/143
f 84/124/146 85/123/147 87/121/143
f 85/123/147 86/122/148 87/121/143
f 86/122/148 80/119/141 87/121/143
s 11
f 89/50/149 90/51/150 95/52/151 94/53/152
s 12
f 90/155/153 91/156/154 96/157/155 95/158/156
s 13
f 91/62/157 92/56/158 97/59/159 96/63/160
s 14
f 92/56/161 88/57/162 93/58/163 97/59/164
s off
f 93/132/165 94/133/166 99/126/167 98/130/168
s 11
f 94/53/152 95/52/151 100/54/169 99/55/170
s 12
f 95/158/156 96/157/155 101/159/171 100/160/172
s 13
f 96/63/160 97/59/159 102/61/173 101/64/174
s 14
f 97/59/164 93/58/163 98/60/175 102/61/176
s 15
f 98/130/177 99/126/178 103/128/179
f 99/126/178 100/127/180 103/128/179
f 100/127/180 101/129/181 103/128/179
f 101/129/181 102/131/182 103/128/179
f 102/131/182 98/130/177 103/128/179
